<svg width="128" height="128" fill="none" xmlns="http://www.w3.org/2000/svg"><path fill="#2F80ED" d="M0 0h128v128H0z"/><path d="M89.6 40.7h-.1A60.6 60.6 0 0 0 74.3 36L72.4 40a56 56 0 0 0-16.8 0 38.7 38.7 0 0 0-2.1-3.9 60.5 60.5 0 0 0-15 4.7 62 62 0 0 0-10.9 42A61 61 0 0 0 46.3 92a43.5 43.5 0 0 0 3.7-6.4h-.1a40.1 40.1 0 0 1-5.9-3 .2.2 0 0 1 .1-.1 31.4 31.4 0 0 0 1.4-1 43.5 43.5 0 0 0 37.2 0 29.4 29.4 0 0 0 1.2 1.2.2.2 0 0 1 0 .1 37.7 37.7 0 0 1-6 3v.1a48.9 48.9 0 0 0 4 6.2 60.7 60.7 0 0 0 18.5-9.5 61.6 61.6 0 0 0-10.8-41.8ZM51.8 74.2c-3.6 0-6.6-3.3-6.6-7.4 0-4 3-7.4 6.6-7.4 3.7 0 6.7 3.3 6.6 7.4 0 4-3 7.4-6.6 7.4Zm24.4 0c-3.6 0-6.6-3.3-6.6-7.4 0-4 3-7.4 6.6-7.4 3.7 0 6.7 3.3 6.6 7.4 0 4-2.9 7.4-6.6 7.4Z" fill="#fff"/></svg>