<?xml version="1.0" encoding="UTF-8"?><svg width="64" height="64" stroke="null" vector-effect="non-scaling-stroke" version="1.1" xmlns="http://www.w3.org/2000/svg" xmlns:cc="http://creativecommons.org/ns#" xmlns:dc="http://purl.org/dc/elements/1.1/" xmlns:rdf="http://www.w3.org/1999/02/22-rdf-syntax-ns#"><metadata><rdf:RDF><cc:Work rdf:about=""><dc:format>image/svg+xml</dc:format><dc:type rdf:resource="http://purl.org/dc/dcmitype/StillImage"/><dc:title/></cc:Work></rdf:RDF></metadata><defs><clipPath id="a"><path d="m0 36h36v-36h-36z"/></clipPath><clipPath id="b"><path d="m0 36h36v-36h-36z"/></clipPath></defs><path d="m1 1h62v62h-62z" fill="none"/><g transform="translate(2.0198 1.3247)"><g transform="matrix(.23104 0 0 .23109 -.2 -6)"><g stroke-width=".3"><path d="m117.4 88.1c-2.3-0.2-4.4-0.8-6.5-1.6-8-3-15.8-9-22.8-12-3.3-1.4-6.2-2.3-10-3.7-6.5-2.3-9.7 4.4-9.7 4.4s-2.1 3-3.7 9.1c-1.1 4.3-2.4 15.3-4.7 22.7-1 3.4-2.6 6.8-4.3 10-2.8 5.2-7.4 9.5-9.7 15-1.2 3-0.8 6.3-2 9.3-2 5-6 8.9-8.5 13.7a185.9 185.9 0 0 0-12.6 36.8c-1.8 8.7-2.7 17.6-3 26.5 0 5.5 0 11.1 1 16.5 1.3 6 2.6 12.3 6.3 17.1 4.8 6.3 12 10.3 19.3 13.6 9.3 4.2 19 7.6 29 10 8.5 2 17.2 2.8 26 3.6a309.7 309.7 0 0 0 53.9 0.7c11.8-1 23.7-2.2 35.2-5.2 8.4-2.2 16.6-5.3 24.4-9 6.4-3.2 13.7-5.6 18-11.2 4.8-6.2 5.7-14.7 7-22.4 1.1-6.4 0.4-13 0.6-19.4l0.8-17 0.7-14.4 0.1-17.2c0.2-6 0.2-11.9 0.8-17.7 0.9-8.4 3.7-17.4 4.2-25 0 0 0.7-7.3 1-12.6 0.2-2.2 0.3-7.8 0.3-9.6-0.2-7.1-4.6-3.2-6.6-2.4l-15.8 6-84.4-15.8s-16.2 2-24.3 1.2z" fill="#fbc01b" stroke="#fbc01b"/><path d="m178 35c-19 42.4-14.4 46.8-23.7 44.6-9.3-2.3-14.1-0.6-14.1-0.6 0.4 0.2-8 2.4-0.5 10.8 6.4 5 18.4 13.3 28.4 18.6a244 244 0 0 0 35 15c12.6 4.4 22.2 8.3 38.7 10.6 16.4 2.3 17.7-1.6 17.7-1.6s3.6-6.6-4.4-11.5c-8-4.8-12.5-7.7-12.5-7.7s-4-2.4-2.6-6.4c1.6-4.6 17.4-41.4 17.7-40.7 0-0.1 4.4-6.5-1.5-13.7l-3.3-3.7c-2.7-2.7-4-3.9-6.3-5.4a82.3 82.3 0 0 0-16.7-9c-10-3.8-12.7-5.6-31-7.9-15.6-1.9-20.8 8.7-20.9 8.7z" fill="#000013" stroke="#170000"/><ellipse transform="matrix(.98965 .14349 -.2591 .96585 0 0)" cx="186.8" cy="131.6" rx="13.2" ry="17.2" fill-rule="evenodd" stroke="#2f2e2f"/></g><g fill="none" stroke="#9aaab4" stroke-linecap="round" stroke-width="6.6"><path transform="matrix(.66771 .33822 -.22804 .9903 19.1 -93.4)" d="m53 197.8 56 2.7"/><path transform="matrix(.70627 .22449 -.15948 .85311 -2.7 -41.3)" d="m53 197.8 56 2.7"/><path transform="matrix(-1.2916 .17035 .37704 .79313 225.2 -1.3)" d="m53 197.8 56 2.7"/><path transform="matrix(-1.2884 -.09168 -.35611 .83082 363.1 29.4)" d="m53 197.8 56 2.7"/></g><ellipse transform="matrix(.99992 .0128 -.22848 .97355 0 0)" cx="114.2" cy="144" rx="13.3" ry="17" fill-rule="evenodd" stroke="#000" stroke-width=".3"/><ellipse cx="75.9" cy="139.4" rx="28.5" ry="28.7" fill="#fff" fill-opacity=".2" fill-rule="evenodd" stroke="#0b0000" stroke-width="6.3"/><path d="m45.2 176.1c0.6-0.2 1.2-0.5 1.9-0.3 0.1 0 0.4 0 0.4 0.3 0 0.5-0.6 0.6-1.1 1-0.7 0.4-1 1.2-1.5 1.9l-0.8 1.8c-0.2 1-0.4 2-0.3 3a7.6 7.6 0 0 0 4 5.7c0.8 0.5 1.7 0.8 2.5 1a16.9 16.9 0 0 0 6.3 0 25.9 25.9 0 0 0 8.4-3.2l3-1.8 4-2 3.7-2 3.2-1.5c1.1-0.5 2.2-1.2 3.3-1.6 1.2-0.5 2.4-1 3.6-1.3a27.6 27.6 0 0 1 10.7-0.2c1.1 0.2 2.3 0.5 3.3 1 1 0.4 1.8 1 2.6 1.5l1.8 1.5 2.3 1.4a10.5 10.5 0 0 0 6.7 0c1-0.2 1.8-0.7 2.7-1 1.1-0.2 2.3-0.3 3.5-0.2 1.4 0 2.7 0.5 4 0.8a33.2 33.2 0 0 1 6.8 2.6c1.2 0.6 2 1.1 2.8 1.8l3 2.7 2.8 3 2.3 2.7c1 1.1 1.7 2.3 2.6 3.4l2.4 3.3c0.8 1 1.5 2.2 2.5 3.3a22 22 0 0 0 2.6 2.4l2.9 2c1.1 0.7 2.3 1.4 3.6 2 1.1 0.5 2.3 0.9 3.5 1.2l3 0.9c1.2 0.2 2.4 0.5 3.5 0.4a5 5 0 0 0 2.4-0.8c0.5-0.4 1-1 1.2-1.6s0.3-1.2 0.2-1.8c-0.1-0.7-0.5-1.3-0.7-2l-1.2-2-0.8-1.9c-0.3-0.5-0.6-1-0.7-1.5-0.2-0.6-0.6-1.3-0.2-1.6 0.6-0.4 1.3 0.4 1.8 0.8 0.8 0.5 1.3 1.3 2 2l1.6 1.7a19.8 19.8 0 0 1 2.5 4.2 11.7 11.7 0 0 1 0.9 4.8 18.3 18.3 0 0 1-0.8 4.6c-0.3 0.7-0.4 1.3-0.9 1.8-0.6 0.8-0.6 0.8-1.4 1.4-0.4 0.4-1 0.6-1.6 1l-2.3 0.9c-1.2 0.5-3 1-3.7 1.2-1.9 0.6-2.3 0.6-4 0.9a26.4 26.4 0 0 1-6.6 0.2c-1.4 0-2.7-0.2-4-0.4a71.7 71.7 0 0 1-8-1.2c-1.5-0.2-2.8-0.6-4.2-1l-3.2-0.7c-2.3-0.5-4.6-1-6.8-1.8-1.3-0.4-2.5-1.1-3.8-1.7l-3.8-1.6-3.6-1.7-2.6-1.3-2.1-1.5-4.5-4c-0.5-0.4-1-1-1.5-1.2s-1-0.2-1.5-0.2c-1.8 0.3-3.3 1.4-5 1.9a33.5 33.5 0 0 1-8.8 1c-1.7 0.2-3.5 0.2-5.3 0.1l-5-0.1-4.8-0.2-6.2-0.7-4.5-0.6a60 60 0 0 1-7.8-2c-1.6-0.5-3-1.3-4.6-2l-3.7-1.5a37.1 37.1 0 0 1-8.5-6.3c-0.7-0.7-1.2-1.5-1.8-2.3l-1.5-2.4a9 9 0 0 1-0.6-2 19 19 0 0 1 0-6.4c0.2-0.8 0.7-1.6 1-2.4 0.4-0.7 0.6-1.4 1.1-2 1.4-1.6 3.4-2.8 5.4-3.6z" fill="#001" stroke="none"/></g><g transform="matrix(-.59882 0 0 .41492 52.4 46.4)" clip-path="url(#a)" stroke="none"><path d="m20.8 8.4c-0.3-1.3-2.4-2-4.6-1.3-2.1 0.7-3.5 2.3-3.1 3.6 0.3 1.3 2.4 2 4.6 1.3 2.1-0.6 3.5-2.2 3.1-3.6m-2.8 24.6c-10 0-18-7-18-15.5 0-1 0.1-2 0.4-3 1.6-3.3 3-1.4 8.6 1.5 5.7 2.9 0-4-2-8-0.6-1.2-0.3-2.3 0.6-3.1a20 20 0 0 1 10.4-2.9c10 0 18 7 18 15.4s-8 15.6-18 15.6" fill="#d99e82"/><path d="m13 25a3 3 0 1 0-6 0 3 3 0 0 0 6 0" fill="#5c913b"/><path d="m23 27a3 3 0 1 0-6 0 3 3 0 0 0 6 0" fill="#269"/><path d="m32 21a3 3 0 1 0-6 0 3 3 0 0 0 6 0" fill="#f92e44"/><path d="m31 12a3 3 0 1 0-6 0 3 3 0 0 0 6 0" fill="#fff"/></g><g transform="matrix(.27262 0 0 -.27267 36 54.1)" clip-path="url(#b)" stroke="none"><path d="m14.6 8.3c2.8 1.7 6.6 3.8 9.9 7.1 7 7 12.7 17 11.3 18.4s-11.4-4.3-18.4-11.3c-3.3-3.3-5.4-7.1-7-10z" fill="#3b88c3"/><path d="m0.4 1.3s7.1-1.5 12 3.5c2.2 2.1 2.2 5 2.2 5l-2.9 2.8s-3.5-0.7-5-2.2-2.3-4.2-2.7-5.4c-0.8-2.7-3.6-3.7-3.6-3.7" fill="#c1694f"/><path d="m17.9 10.7-5.2 5.1c-0.4 0.4-1 0.4-1.3-0.1l-1-1.7c-0.4-0.5-0.3-1.2 0-1.5l4.1-4.1c0.4-0.4 1-0.4 1.5-0.1l1.7 1.1c0.5 0.3 0.6 0.9 0.2 1.3" fill="#ccd6dd"/><path d="m11.2 3.7c-1.2-0.7-1.8 0-1.6 0.6 0.2 0.8-0.1 1.7-1.2 1.5-1.1-0.3-1.9 0.3-1.5 1.7 0.3 1.5-1.1 1.9-1.9 0.5a18 18 0 0 1-1-3.1c-0.8-2.6-3.6-3.6-3.6-3.6s6-1.2 10.8 2.4" fill="#b1473c"/></g></g></svg>