<svg width="440" height="252" viewBox="0 0 116.42 66.675" xmlns="http://www.w3.org/2000/svg"><defs><linearGradient id="a" x1="0" x2="440" y1="252" y2="0" gradientUnits="userSpaceOnUse"><stop stop-color="#3081ED" offset="0"/><stop stop-color="#fff" stop-opacity="0" offset="1"/></linearGradient></defs><g transform="scale(.26458)" fill="none"><rect width="440" height="252" rx="4" fill="#6fd6cf"/><rect width="440" height="252" rx="4" fill="url(#a)"/><mask id="b" fill="#fff"><rect width="440" height="252" rx="4"/></mask><rect width="440" height="252" rx="4" mask="url(#b)" stroke="#fff" stroke-width="16"/><g fill="#fff" stroke="#000" stroke-linecap="round" stroke-linejoin="round" stroke-opacity=".55" style="white-space:pre" aria-label="Welcome ImRock to Welcomer Support Guild You are the 256th member!"><path d="M135.38 173.19q-.357 0-.567-.21t-.252-.483l-2.289-13.419q-.021-.063-.021-.084v-.063q0-.168.126-.294.147-.147.315-.147h2.604q.588 0 .651.462l1.365 8.19 1.512-4.83q.063-.168.21-.357.147-.21.483-.21h1.512q.357 0 .504.21.147.189.189.357l1.512 4.83 1.365-8.19q.063-.462.651-.462h2.604q.189 0 .315.147.147.126.147.294 0 .021-.021.063v.084l-2.289 13.419q-.042.273-.252.483t-.567.21h-1.995q-.357 0-.546-.189t-.252-.357l-2.121-6.006-2.121 6.006q-.063.168-.252.357-.168.189-.525.189zM154.91 173.4q-2.478 0-3.948-1.344t-1.533-3.99v-.735q.063-1.659.735-2.835.693-1.197 1.89-1.806 1.218-.63 2.835-.63 1.848 0 3.045.735 1.218.735 1.827 1.995t.609 2.877v.504q0 .231-.147.378t-.378.147h-6.72V168.843q.021.609.21 1.113.21.504.588.798.399.294.966.294.42 0 .693-.126.294-.147.483-.315.189-.189.294-.315.189-.231.294-.273.126-.063.378-.063h2.604q.21 0 .336.126.147.126.126.336-.021.357-.357.861t-.987 1.008q-.63.483-1.596.798t-2.247.315zm-1.785-6.783h3.549v-.042q0-.693-.21-1.176-.189-.504-.609-.777-.399-.273-.966-.273-.546 0-.945.273t-.609.777q-.21.483-.21 1.176zM162.87 173.19q-.231 0-.378-.147-.147-.168-.147-.378v-13.86q0-.231.147-.378t.378-.147h2.478q.231 0 .378.147t.147.378v13.86q0 .21-.147.378-.147.147-.378.147zM173.37 173.4q-1.554 0-2.751-.567t-1.911-1.638q-.693-1.092-.756-2.604-.021-.336-.021-.84 0-.525.021-.861.063-1.533.756-2.604.693-1.092 1.89-1.659 1.218-.567 2.772-.567 1.449 0 2.478.42 1.05.399 1.68 1.008.651.609.966 1.26.336.63.357 1.113.021.21-.147.378-.168.147-.378.147h-2.667q-.231 0-.357-.105t-.231-.315q-.252-.651-.651-.924-.378-.273-.987-.273-.84 0-1.302.546-.441.546-.483 1.68-.021.84 0 1.491.063 1.155.504 1.68t1.281.525q.651 0 1.029-.273.378-.294.609-.924.105-.21.231-.315t.357-.105h2.667q.21 0 .378.147t.147.378q-.021.336-.21.819t-.588 1.008-1.05.966q-.63.441-1.533.735-.903.273-2.1.273zM185.9 173.4q-1.764 0-2.982-.567-1.197-.567-1.848-1.617-.63-1.071-.714-2.541-.021-.42-.021-.945 0-.546.021-.945.084-1.491.756-2.541t1.869-1.617q1.218-.567 2.919-.567 1.722 0 2.919.567 1.218.567 1.89 1.617t.756 2.541q.021.399.021.945 0 .525-.021.945-.084 1.47-.735 2.541-.63 1.05-1.848 1.617-1.197.567-2.982.567zm0-2.562q.945 0 1.365-.567.441-.567.504-1.701.021-.315.021-.84t-.021-.84q-.063-1.113-.504-1.68-.42-.588-1.365-.588-.903 0-1.365.588-.441.567-.483 1.68-.021.315-.021.84t.021.84q.042 1.134.483 1.701.462.567 1.365.567zM194.09 173.19q-.231 0-.378-.147-.147-.168-.147-.378v-9.87q0-.231.147-.378t.378-.147h2.289q.231 0 .378.147t.147.378v.714q.42-.567 1.176-.987.756-.441 1.785-.462 2.436-.063 3.339 1.806.483-.798 1.365-1.302.903-.504 1.974-.504 1.092 0 1.953.504.882.483 1.407 1.512.525 1.008.525 2.625v5.964q0 .21-.147.378-.147.147-.378.147h-2.436q-.231 0-.399-.147-.147-.168-.147-.378v-5.817q0-.735-.21-1.155-.21-.441-.567-.63t-.819-.189q-.378 0-.756.189-.357.189-.588.63-.21.42-.21 1.155v5.817q0 .21-.147.378-.147.147-.378.147h-2.436q-.231 0-.378-.147-.147-.168-.147-.378v-5.817q0-.735-.231-1.155-.231-.441-.588-.63t-.777-.189q-.399 0-.777.189-.357.189-.588.63-.21.42-.21 1.134v5.838q0 .21-.168.378-.147.147-.357.147zM217.84 173.4q-2.478 0-3.948-1.344t-1.533-3.99v-.735q.063-1.659.735-2.835.693-1.197 1.89-1.806 1.218-.63 2.835-.63 1.848 0 3.045.735 1.218.735 1.827 1.995t.609 2.877v.504q0 .231-.147.378t-.378.147h-6.72V168.843q.021.609.21 1.113.21.504.588.798.399.294.966.294.42 0 .693-.126.294-.147.483-.315.189-.189.294-.315.189-.231.294-.273.126-.063.378-.063h2.604q.21 0 .336.126.147.126.126.336-.021.357-.357.861t-.987 1.008q-.63.483-1.596.798t-2.247.315zm-1.785-6.783h3.549v-.042q0-.693-.21-1.176-.189-.504-.609-.777-.399-.273-.966-.273-.546 0-.945.273t-.609.777q-.21.483-.21 1.176zM230.51 173.19q-.231 0-.378-.147-.147-.168-.147-.378v-13.65q0-.231.147-.378t.378-.147h2.814q.231 0 .378.147.168.147.168.378v13.65q0 .21-.168.378-.147.147-.378.147zM237.08 173.19q-.231 0-.378-.147-.147-.168-.147-.378v-9.87q0-.231.147-.378t.378-.147h2.289q.231 0 .378.147t.147.378v.714q.42-.567 1.176-.987.756-.441 1.785-.462 2.436-.063 3.339 1.806.483-.798 1.365-1.302.903-.504 1.974-.504 1.092 0 1.953.504.882.483 1.407 1.512.525 1.008.525 2.625v5.964q0 .21-.147.378-.147.147-.378.147h-2.436q-.231 0-.399-.147-.147-.168-.147-.378v-5.817q0-.735-.21-1.155-.21-.441-.567-.63t-.819-.189q-.378 0-.756.189-.357.189-.588.63-.21.42-.21 1.155v5.817q0 .21-.147.378-.147.147-.378.147H243.8q-.231 0-.378-.147-.147-.168-.147-.378v-5.817q0-.735-.231-1.155-.231-.441-.588-.63t-.777-.189q-.399 0-.777.189-.357.189-.588.63-.21.42-.21 1.134v5.838q0 .21-.168.378-.147.147-.357.147zM256.55 173.19q-.231 0-.378-.147-.147-.168-.147-.378v-13.65q0-.231.147-.378t.378-.147h5.712q2.73 0 4.284 1.26 1.554 1.239 1.554 3.528 0 1.491-.714 2.52t-1.89 1.554l2.877 5.166q.063.126.063.231 0 .168-.147.315-.126.126-.294.126h-2.793q-.399 0-.588-.189-.189-.21-.273-.378l-2.394-4.62h-2.142v4.662q0 .21-.168.378-.147.147-.378.147zm3.255-8.169h2.415q.987 0 1.47-.483.504-.483.504-1.302t-.483-1.323q-.462-.504-1.491-.504h-2.415zM275.32 173.4q-1.764 0-2.982-.567-1.197-.567-1.848-1.617-.63-1.071-.714-2.541-.021-.42-.021-.945 0-.546.021-.945.084-1.491.756-2.541t1.869-1.617q1.218-.567 2.919-.567 1.722 0 2.919.567 1.218.567 1.89 1.617t.756 2.541q.021.399.021.945 0 .525-.021.945-.084 1.47-.735 2.541-.63 1.05-1.848 1.617-1.197.567-2.982.567zm0-2.562q.945 0 1.365-.567.441-.567.504-1.701.021-.315.021-.84t-.021-.84q-.063-1.113-.504-1.68-.42-.588-1.365-.588-.903 0-1.365.588-.441.567-.483 1.68-.021.315-.021.84t.021.84q.042 1.134.483 1.701.462.567 1.365.567zM288 173.4q-1.554 0-2.751-.567t-1.911-1.638q-.693-1.092-.756-2.604-.021-.336-.021-.84 0-.525.021-.861.063-1.533.756-2.604.693-1.092 1.89-1.659 1.218-.567 2.772-.567 1.449 0 2.478.42 1.05.399 1.68 1.008.651.609.966 1.26.336.63.357 1.113.021.21-.147.378-.168.147-.378.147h-2.667q-.231 0-.357-.105t-.231-.315q-.252-.651-.651-.924-.378-.273-.987-.273-.84 0-1.302.546-.441.546-.483 1.68-.021.84 0 1.491.063 1.155.504 1.68t1.281.525q.651 0 1.029-.273.378-.294.609-.924.105-.21.231-.315t.357-.105h2.667q.21 0 .378.147t.147.378q-.021.336-.21.819t-.588 1.008-1.05.966q-.63.441-1.533.735-.903.273-2.1.273zM295.9 173.19q-.231 0-.378-.147-.147-.168-.147-.378v-13.86q0-.231.147-.378t.378-.147h2.436q.21 0 .357.147.168.147.168.378v7.035l2.919-3.213q.126-.147.273-.252t.42-.105h2.814q.189 0 .315.147.147.126.147.315 0 .084-.042.189-.021.105-.126.168l-3.78 4.074 4.305 5.229q.168.168.168.315 0 .21-.147.357-.126.126-.336.126h-2.877q-.315 0-.462-.105-.147-.126-.273-.252l-3.318-3.99v3.822q0 .21-.168.378-.147.147-.357.147zM87.131 197.19q-1.344 0-2.331-.42-.966-.441-1.491-1.344-.525-.924-.525-2.373v-4.032h-1.638q-.231 0-.399-.147-.147-.147-.147-.378v-1.701q0-.231.147-.378.168-.147.399-.147h1.638v-3.465q0-.231.147-.378.168-.147.378-.147h2.436q.231 0 .378.147t.147.378v3.465h2.625q.231 0 .378.147.168.147.168.378v1.701q0 .231-.168.378-.147.147-.378.147H86.27v3.738q0 .714.273 1.134t.924.42h1.617q.231 0 .378.147t.147.378v1.827q0 .21-.147.378-.147.147-.378.147zM96.518 197.4q-1.764 0-2.982-.567-1.197-.567-1.848-1.617-.63-1.071-.714-2.541-.021-.42-.021-.945 0-.546.021-.945.084-1.491.756-2.541t1.869-1.617q1.218-.567 2.919-.567 1.722 0 2.919.567 1.218.567 1.89 1.617t.756 2.541q.021.399.021.945 0 .525-.021.945-.084 1.47-.735 2.541-.63 1.05-1.848 1.617-1.197.567-2.982.567zm0-2.562q.945 0 1.365-.567.441-.567.504-1.701.021-.315.021-.84t-.021-.84q-.063-1.113-.504-1.68-.42-.588-1.365-.588-.903 0-1.365.588-.441.567-.483 1.68-.021.315-.021.84t.021.84q.042 1.134.483 1.701.462.567 1.365.567zM111.09 197.19q-.357 0-.567-.21t-.252-.483l-2.289-13.419q-.021-.063-.021-.084v-.063q0-.168.126-.294.147-.147.315-.147h2.604q.588 0 .651.462l1.365 8.19 1.512-4.83q.063-.168.21-.357.147-.21.483-.21h1.512q.357 0 .504.21.147.189.189.357l1.512 4.83 1.365-8.19q.063-.462.651-.462h2.604q.189 0 .315.147.147.126.147.294 0 .021-.021.063v.084l-2.289 13.419q-.042.273-.252.483t-.567.21h-1.995q-.357 0-.546-.189t-.252-.357l-2.121-6.006-2.121 6.006q-.063.168-.252.357-.168.189-.525.189zM130.62 197.4q-2.478 0-3.948-1.344t-1.533-3.99v-.735q.063-1.659.735-2.835.693-1.197 1.89-1.806 1.218-.63 2.835-.63 1.848 0 3.045.735 1.218.735 1.827 1.995t.609 2.877v.504q0 .231-.147.378t-.378.147h-6.72V192.843q.021.609.21 1.113.21.504.588.798.399.294.966.294.42 0 .693-.126.294-.147.483-.315.189-.189.294-.315.189-.231.294-.273.126-.063.378-.063h2.604q.21 0 .336.126.147.126.126.336-.021.357-.357.861t-.987 1.008q-.63.483-1.596.798t-2.247.315zm-1.785-6.783h3.549v-.042q0-.693-.21-1.176-.189-.504-.609-.777-.399-.273-.966-.273-.546 0-.945.273t-.609.777q-.21.483-.21 1.176zM138.58 197.19q-.231 0-.378-.147-.147-.168-.147-.378v-13.86q0-.231.147-.378t.378-.147h2.478q.231 0 .378.147t.147.378v13.86q0 .21-.147.378-.147.147-.378.147zM149.08 197.4q-1.554 0-2.751-.567t-1.911-1.638q-.693-1.092-.756-2.604-.021-.336-.021-.84 0-.525.021-.861.063-1.533.756-2.604.693-1.092 1.89-1.659 1.218-.567 2.772-.567 1.449 0 2.478.42 1.05.399 1.68 1.008.651.609.966 1.26.336.63.357 1.113.021.21-.147.378-.168.147-.378.147h-2.667q-.231 0-.357-.105t-.231-.315q-.252-.651-.651-.924-.378-.273-.987-.273-.84 0-1.302.546-.441.546-.483 1.68-.021.84 0 1.491.063 1.155.504 1.68t1.281.525q.651 0 1.029-.273.378-.294.609-.924.105-.21.231-.315t.357-.105h2.667q.21 0 .378.147t.147.378q-.021.336-.21.819t-.588 1.008-1.05.966q-.63.441-1.533.735-.903.273-2.1.273zM161.62 197.4q-1.764 0-2.982-.567-1.197-.567-1.848-1.617-.63-1.071-.714-2.541-.021-.42-.021-.945 0-.546.021-.945.084-1.491.756-2.541t1.869-1.617q1.218-.567 2.919-.567 1.722 0 2.919.567 1.218.567 1.89 1.617t.756 2.541q.021.399.021.945 0 .525-.021.945-.084 1.47-.735 2.541-.63 1.05-1.848 1.617-1.197.567-2.982.567zm0-2.562q.945 0 1.365-.567.441-.567.504-1.701.021-.315.021-.84t-.021-.84q-.063-1.113-.504-1.68-.42-.588-1.365-.588-.903 0-1.365.588-.441.567-.483 1.68-.021.315-.021.84t.021.84q.042 1.134.483 1.701.462.567 1.365.567zM169.81 197.19q-.231 0-.378-.147-.147-.168-.147-.378v-9.87q0-.231.147-.378t.378-.147h2.289q.231 0 .378.147t.147.378v.714q.42-.567 1.176-.987.756-.441 1.785-.462 2.436-.063 3.339 1.806.483-.798 1.365-1.302.903-.504 1.974-.504 1.092 0 1.953.504.882.483 1.407 1.512.525 1.008.525 2.625v5.964q0 .21-.147.378-.147.147-.378.147h-2.436q-.231 0-.399-.147-.147-.168-.147-.378v-5.817q0-.735-.21-1.155-.21-.441-.567-.63t-.819-.189q-.378 0-.756.189-.357.189-.588.63-.21.42-.21 1.155v5.817q0 .21-.147.378-.147.147-.378.147h-2.436q-.231 0-.378-.147-.147-.168-.147-.378v-5.817q0-.735-.231-1.155-.231-.441-.588-.63t-.777-.189q-.399 0-.777.189-.357.189-.588.63-.21.42-.21 1.134v5.838q0 .21-.168.378-.147.147-.357.147zM193.56 197.4q-2.478 0-3.948-1.344t-1.533-3.99v-.735q.063-1.659.735-2.835.693-1.197 1.89-1.806 1.218-.63 2.835-.63 1.848 0 3.045.735 1.218.735 1.827 1.995t.609 2.877v.504q0 .231-.147.378t-.378.147h-6.72V192.843q.021.609.21 1.113.21.504.588.798.399.294.966.294.42 0 .693-.126.294-.147.483-.315.189-.189.294-.315.189-.231.294-.273.126-.063.378-.063h2.604q.21 0 .336.126.147.126.126.336-.021.357-.357.861t-.987 1.008q-.63.483-1.596.798t-2.247.315zm-1.785-6.783h3.549v-.042q0-.693-.21-1.176-.189-.504-.609-.777-.399-.273-.966-.273-.546 0-.945.273t-.609.777q-.21.483-.21 1.176zM201.52 197.19q-.231 0-.378-.147-.147-.168-.147-.378v-9.87q0-.21.147-.357.147-.168.378-.168h2.415q.231 0 .378.168.168.147.168.357v.84q.546-.651 1.323-1.008.798-.357 1.785-.357h.924q.231 0 .378.147t.147.378v2.163q0 .21-.147.378-.147.147-.378.147h-2.037q-.861 0-1.344.483-.462.462-.462 1.323v5.376q0 .21-.168.378-.147.147-.378.147zM220.29 197.4q-2.1 0-3.486-.588-1.386-.609-2.1-1.575t-.756-2.058q0-.168.126-.294.147-.147.336-.147h2.646q.294 0 .441.105.168.105.294.273.168.315.462.609.315.294.819.483.504.168 1.218.168 1.218 0 1.827-.378.63-.378.63-1.029 0-.483-.336-.777t-1.092-.525q-.735-.252-1.974-.504-1.596-.336-2.73-.861-1.113-.546-1.701-1.407-.588-.882-.588-2.184 0-1.281.714-2.289.735-1.008 2.037-1.575t3.087-.567q1.449 0 2.541.378 1.113.378 1.869 1.008t1.134 1.344q.399.693.42 1.365 0 .168-.126.315-.105.126-.315.126h-2.772q-.231 0-.399-.084t-.294-.273q-.126-.462-.672-.798-.525-.357-1.386-.357-.924 0-1.449.336-.504.315-.504.987 0 .42.273.735.294.315.945.546.672.231 1.827.483 1.911.357 3.087.903 1.176.525 1.722 1.386.567.84.567 2.121 0 1.428-.819 2.457t-2.247 1.596q-1.407.546-3.276.546zM232.51 197.4q-1.197 0-2.142-.546-.924-.546-1.449-1.596-.525-1.071-.525-2.604v-5.859q0-.231.147-.378t.378-.147h2.625q.231 0 .378.147.168.147.168.378v5.733q0 2.058 1.827 2.058.861 0 1.365-.525.525-.546.525-1.533v-5.733q0-.231.147-.378t.378-.147h2.625q.231 0 .378.147t.147.378v9.87q0 .21-.147.378-.147.147-.378.147h-2.436q-.21 0-.378-.147-.147-.168-.147-.378v-.798q-.546.756-1.428 1.155-.861.378-2.058.378zM242.49 201.18q-.231 0-.378-.168-.147-.147-.147-.357v-13.86q0-.231.147-.378t.378-.147h2.373q.21 0 .357.147.168.147.168.378v.756q.504-.63 1.302-1.05.798-.441 1.953-.441 1.05 0 1.848.336.798.315 1.365.945.588.63.903 1.533t.357 2.079q.021.42.021.777t-.021.777q-.042 1.134-.357 2.037t-.882 1.533-1.386.987q-.798.336-1.848.336-1.029 0-1.806-.357-.756-.378-1.26-1.05v4.662q0 .21-.147.357-.147.168-.378.168zm5.019-6.594q.714 0 1.113-.294t.567-.798q.189-.504.231-1.113.042-.651 0-1.302-.042-.609-.231-1.113-.168-.504-.567-.798t-1.113-.294q-.672 0-1.092.315-.42.294-.609.777t-.231 1.05q-.021.399-.021.777t.021.798q.021.525.231.987.21.441.63.735.42.273 1.071.273zM255.74 201.18q-.231 0-.378-.168-.147-.147-.147-.357v-13.86q0-.231.147-.378t.378-.147h2.373q.21 0 .357.147.168.147.168.378v.756q.504-.63 1.302-1.05.798-.441 1.953-.441 1.05 0 1.848.336.798.315 1.365.945.588.63.903 1.533t.357 2.079q.021.42.021.777t-.021.777q-.042 1.134-.357 2.037t-.882 1.533-1.386.987q-.798.336-1.848.336-1.029 0-1.806-.357-.756-.378-1.26-1.05v4.662q0 .21-.147.357-.147.168-.378.168zm5.019-6.594q.714 0 1.113-.294t.567-.798q.189-.504.231-1.113.042-.651 0-1.302-.042-.609-.231-1.113-.168-.504-.567-.798t-1.113-.294q-.672 0-1.092.315-.42.294-.609.777t-.231 1.05q-.021.399-.021.777t.021.798q.021.525.231.987.21.441.63.735.42.273 1.071.273zM273.63 197.4q-1.764 0-2.982-.567-1.197-.567-1.848-1.617-.63-1.071-.714-2.541-.021-.42-.021-.945 0-.546.021-.945.084-1.491.756-2.541t1.869-1.617q1.218-.567 2.919-.567 1.722 0 2.919.567 1.218.567 1.89 1.617t.756 2.541q.021.399.021.945 0 .525-.021.945-.084 1.47-.735 2.541-.63 1.05-1.848 1.617-1.197.567-2.982.567zm0-2.562q.945 0 1.365-.567.441-.567.504-1.701.021-.315.021-.84t-.021-.84q-.063-1.113-.504-1.68-.42-.588-1.365-.588-.903 0-1.365.588-.441.567-.483 1.68-.021.315-.021.84t.021.84q.042 1.134.483 1.701.462.567 1.365.567zM281.82 197.19q-.231 0-.378-.147-.147-.168-.147-.378v-9.87q0-.21.147-.357.147-.168.378-.168h2.415q.231 0 .378.168.168.147.168.357v.84q.546-.651 1.323-1.008.798-.357 1.785-.357h.924q.231 0 .378.147t.147.378v2.163q0 .21-.147.378-.147.147-.378.147h-2.037q-.861 0-1.344.483-.462.462-.462 1.323v5.376q0 .21-.168.378-.147.147-.378.147zM296.42 197.19q-1.344 0-2.331-.42-.966-.441-1.491-1.344-.525-.924-.525-2.373v-4.032h-1.638q-.231 0-.399-.147-.147-.147-.147-.378v-1.701q0-.231.147-.378.168-.147.399-.147h1.638v-3.465q0-.231.147-.378.168-.147.378-.147h2.436q.231 0 .378.147t.147.378v3.465h2.625q.231 0 .378.147.168.147.168.378v1.701q0 .231-.168.378-.147.147-.378.147h-2.625v3.738q0 .714.273 1.134t.924.42h1.617q.231 0 .378.147t.147.378v1.827q0 .21-.147.378-.147.147-.378.147zM311.41 197.4q-1.995 0-3.444-.651-1.428-.672-2.226-1.932-.777-1.281-.861-3.108-.021-.903-.021-1.911 0-1.029.021-1.953.084-1.785.882-3.024t2.247-1.89 3.402-.651q1.575 0 2.793.399 1.218.378 2.037 1.029.84.651 1.281 1.428t.462 1.533q0 .189-.147.315-.126.126-.315.126h-3.066q-.231 0-.357-.063-.105-.084-.189-.231-.147-.315-.441-.651-.273-.357-.777-.609-.483-.252-1.281-.252-1.176 0-1.869.63t-.756 2.016q-.063 1.806 0 3.654.063 1.47.777 2.121t1.911.651q.777 0 1.386-.273.63-.273.987-.84.357-.588.357-1.491v-.399h-1.974q-.231 0-.378-.147-.147-.168-.147-.399v-1.554q0-.231.147-.378.147-.168.378-.168h5.292q.231 0 .378.168.147.147.147.378v2.394q0 1.806-.819 3.087t-2.331 1.974q-1.491.672-3.486.672zM324.24 197.4q-1.197 0-2.142-.546-.924-.546-1.449-1.596-.525-1.071-.525-2.604v-5.859q0-.231.147-.378t.378-.147h2.625q.231 0 .378.147.168.147.168.378v5.733q0 2.058 1.827 2.058.861 0 1.365-.525.525-.546.525-1.533v-5.733q0-.231.147-.378t.378-.147h2.625q.231 0 .378.147t.147.378v9.87q0 .21-.147.378-.147.147-.378.147h-2.436q-.21 0-.378-.147-.147-.168-.147-.378v-.798q-.546.756-1.428 1.155-.861.378-2.058.378zM334.22 197.19q-.231 0-.378-.147-.147-.168-.147-.378v-9.87q0-.231.147-.378t.378-.147h2.478q.231 0 .378.147t.147.378v9.87q0 .21-.147.378-.147.147-.378.147zm-.021-12.495q-.231 0-.378-.147t-.147-.378v-1.89q0-.21.147-.357.147-.168.378-.168h2.52q.21 0 .357.168.168.147.168.357v1.89q0 .231-.168.378-.147.147-.357.147zM340.22 197.19q-.231 0-.378-.147-.147-.168-.147-.378v-13.86q0-.231.147-.378t.378-.147h2.478q.231 0 .378.147t.147.378v13.86q0 .21-.147.378-.147.147-.378.147zM349.78 197.4q-1.008 0-1.827-.315-.798-.336-1.386-.966-.567-.651-.882-1.554-.315-.924-.357-2.1-.021-.42-.021-.735 0-.336.021-.756.042-1.113.357-2.016.315-.924.882-1.554.567-.651 1.386-.987.819-.357 1.827-.357 1.05 0 1.806.357.756.336 1.281.882v-4.494q0-.231.147-.378t.378-.147h2.562q.21 0 .357.147.168.147.168.378v13.86q0 .21-.168.378-.147.147-.357.147h-2.373q-.231 0-.378-.147-.147-.168-.147-.378v-.672q-.504.609-1.302 1.008t-1.974.399zm1.155-2.814q.693 0 1.092-.294.42-.315.609-.798.21-.483.231-1.05.021-.42.021-.798t-.021-.777q-.021-.525-.231-.966-.21-.462-.63-.735-.42-.294-1.071-.294-.693 0-1.113.294-.399.294-.588.798-.168.504-.21 1.113-.063.651 0 1.302.042.609.21 1.113.189.504.588.798.42.294 1.113.294zM83.21 221.19q-.21 0-.378-.147-.147-.168-.147-.378v-4.515l-4.872-8.988q-.021-.063-.042-.105-.021-.063-.021-.126 0-.168.126-.294.147-.147.336-.147h2.625q.315 0 .483.168.189.147.252.273l3.003 5.418 3.024-5.418q.063-.126.231-.273.189-.168.504-.168h2.625q.189 0 .315.147.126.126.126.294 0 .063-.021.126 0 .042-.021.105l-4.872 8.988v4.515q0 .21-.168.378-.147.147-.378.147zM96.314 221.4q-1.764 0-2.982-.567-1.197-.567-1.848-1.617-.63-1.071-.714-2.541-.021-.42-.021-.945 0-.546.021-.945.084-1.491.756-2.541t1.869-1.617q1.218-.567 2.919-.567 1.722 0 2.919.567 1.218.567 1.89 1.617t.756 2.541q.021.399.021.945 0 .525-.021.945-.084 1.47-.735 2.541-.63 1.05-1.848 1.617-1.197.567-2.982.567zm0-2.562q.945 0 1.365-.567.441-.567.504-1.701.021-.315.021-.84t-.021-.84q-.063-1.113-.504-1.68-.42-.588-1.365-.588-.903 0-1.365.588-.441.567-.483 1.68-.021.315-.021.84t.021.84q.042 1.134.483 1.701.462.567 1.365.567zM107.99 221.4q-1.197 0-2.142-.546-.924-.546-1.449-1.596-.525-1.071-.525-2.604v-5.859q0-.231.147-.378t.378-.147h2.625q.231 0 .378.147.168.147.168.378v5.733q0 2.058 1.827 2.058.861 0 1.365-.525.525-.546.525-1.533v-5.733q0-.231.147-.378t.378-.147h2.625q.231 0 .378.147t.147.378v9.87q0 .21-.147.378-.147.147-.378.147h-2.436q-.21 0-.378-.147-.147-.168-.147-.378v-.798q-.546.756-1.428 1.155-.861.378-2.058.378zM125.19 221.4q-1.134 0-2.037-.42-.882-.441-1.407-1.176t-.525-1.659q0-1.491 1.218-2.352 1.218-.882 3.234-1.197l2.625-.399v-.294q0-.756-.315-1.155t-1.155-.399q-.588 0-.966.231-.357.231-.567.63-.189.273-.525.273h-2.352q-.231 0-.357-.126-.126-.147-.105-.336 0-.378.273-.861.294-.504.882-.987t1.512-.798 2.247-.315q1.344 0 2.31.315t1.575.882.882 1.344q.294.756.294 1.68v6.384q0 .21-.168.378-.147.147-.357.147h-2.436q-.231 0-.378-.147-.147-.168-.147-.378v-.735q-.273.399-.735.735t-1.092.525q-.609.21-1.428.21zm.987-2.394q.609 0 1.092-.252.504-.273.777-.819.294-.567.294-1.407v-.294l-1.785.315q-.987.168-1.449.525-.441.336-.441.798 0 .357.21.609t.546.399q.357.126.756.126zM134.83 221.19q-.231 0-.378-.147-.147-.168-.147-.378v-9.87q0-.21.147-.357.147-.168.378-.168h2.415q.231 0 .378.168.168.147.168.357v.84q.546-.651 1.323-1.008.798-.357 1.785-.357h.924q.231 0 .378.147t.147.378v2.163q0 .21-.147.378-.147.147-.378.147h-2.037q-.861 0-1.344.483-.462.462-.462 1.323v5.376q0 .21-.168.378-.147.147-.378.147zM148.79 221.4q-2.478 0-3.948-1.344t-1.533-3.99v-.735q.063-1.659.735-2.835.693-1.197 1.89-1.806 1.218-.63 2.835-.63 1.848 0 3.045.735 1.218.735 1.827 1.995t.609 2.877v.504q0 .231-.147.378t-.378.147h-6.72V216.843q.021.609.21 1.113.21.504.588.798.399.294.966.294.42 0 .693-.126.294-.147.483-.315.189-.189.294-.315.189-.231.294-.273.126-.063.378-.063h2.604q.21 0 .336.126.147.126.126.336-.021.357-.357.861t-.987 1.008q-.63.483-1.596.798t-2.247.315zm-1.785-6.783h3.549v-.042q0-.693-.21-1.176-.189-.504-.609-.777-.399-.273-.966-.273-.546 0-.945.273t-.609.777q-.21.483-.21 1.176zM165.89 221.19q-1.344 0-2.331-.42-.966-.441-1.491-1.344-.525-.924-.525-2.373v-4.032h-1.638q-.231 0-.399-.147-.147-.147-.147-.378v-1.701q0-.231.147-.378.168-.147.399-.147h1.638v-3.465q0-.231.147-.378.168-.147.378-.147h2.436q.231 0 .378.147t.147.378v3.465h2.625q.231 0 .378.147.168.147.168.378v1.701q0 .231-.168.378-.147.147-.378.147h-2.625v3.738q0 .714.273 1.134t.924.42h1.617q.231 0 .378.147t.147.378v1.827q0 .21-.147.378-.147.147-.378.147zM170.63 221.19q-.231 0-.378-.147-.147-.168-.147-.378v-13.86q0-.231.147-.378t.378-.147h2.688q.231 0 .378.147t.147.378v4.683q.567-.651 1.386-1.029.84-.399 1.932-.399 1.218 0 2.163.546.966.546 1.512 1.596t.546 2.604v5.859q0 .21-.147.378-.147.147-.378.147h-2.709q-.21 0-.378-.147-.147-.168-.147-.378v-5.733q0-.987-.483-1.512-.462-.546-1.365-.546-.882 0-1.407.546-.525.525-.525 1.512v5.733q0 .21-.147.378-.147.147-.378.147zM188.8 221.4q-2.478 0-3.948-1.344t-1.533-3.99v-.735q.063-1.659.735-2.835.693-1.197 1.89-1.806 1.218-.63 2.835-.63 1.848 0 3.045.735 1.218.735 1.827 1.995t.609 2.877v.504q0 .231-.147.378t-.378.147h-6.72V216.843q.021.609.21 1.113.21.504.588.798.399.294.966.294.42 0 .693-.126.294-.147.483-.315.189-.189.294-.315.189-.231.294-.273.126-.063.378-.063h2.604q.21 0 .336.126.147.126.126.336-.021.357-.357.861t-.987 1.008q-.63.483-1.596.798t-2.247.315zm-1.785-6.783h3.549v-.042q0-.693-.21-1.176-.189-.504-.609-.777-.399-.273-.966-.273-.546 0-.945.273t-.609.777q-.21.483-.21 1.176zM200.87 221.19q-.231 0-.399-.147-.147-.168-.147-.378v-1.491q0-.147.084-.441.084-.315.441-.588l2.184-2.142q1.68-1.281 2.751-2.163 1.092-.903 1.617-1.596t.525-1.302q0-.714-.378-1.176-.357-.483-1.26-.483-.609 0-1.008.273-.399.252-.63.672-.21.42-.294.861-.084.273-.294.378-.189.105-.42.105h-2.625q-.189 0-.315-.126t-.126-.315q.021-1.008.42-1.89.42-.903 1.155-1.575.756-.672 1.785-1.05 1.05-.399 2.352-.399 1.785 0 3.024.588 1.26.567 1.911 1.596.651 1.008.651 2.373 0 1.029-.462 1.932-.441.882-1.281 1.701-.819.798-1.953 1.659l-1.932 1.953h5.397q.231 0 .378.147.168.147.168.378v2.121q0 .21-.168.378-.147.147-.378.147zM219.84 221.42q-1.974 0-3.297-.609-1.323-.63-2.016-1.617-.672-1.008-.714-2.163 0-.189.126-.315t.315-.126h2.814q.273 0 .42.105.168.105.252.294.189.483.504.798t.714.462.903.147q.588 0 1.092-.252t.798-.735q.315-.504.315-1.197 0-.63-.294-1.092-.273-.462-.777-.735-.483-.273-1.134-.273-.504 0-.819.126-.315.105-.525.273t-.378.294q-.168.105-.378.105h-2.751q-.189 0-.336-.126-.126-.147-.126-.336l.756-7.329q.042-.315.231-.462.189-.168.462-.168h8.421q.231 0 .378.147.168.147.168.378v1.974q0 .231-.168.378-.147.147-.378.147h-6.09l-.273 2.709q.462-.294 1.071-.504.63-.21 1.722-.21.987 0 1.89.357.924.336 1.638.966.735.63 1.134 1.512.42.861.42 1.953 0 1.491-.735 2.646-.714 1.155-2.079 1.827-1.365.651-3.276.651zM233.63 221.4q-1.869 0-3.276-.672t-2.205-1.848q-.777-1.197-.777-2.73 0-.651.189-1.281.21-.651.504-1.218.294-.588.588-1.029.294-.462.483-.735l3.696-4.977q.105-.105.273-.252.168-.168.483-.168h2.793q.189 0 .315.147.126.126.126.315 0 .084-.021.168-.021.063-.063.105l-2.835 3.864q.126-.042.294-.042.189-.021.336-.021.945.042 1.869.42t1.68 1.029 1.197 1.575q.462.903.462 2.016 0 1.47-.756 2.688-.756 1.197-2.142 1.932-1.365.714-3.213.714zm-.042-3.024q.609 0 1.134-.252.525-.273.84-.777.336-.504.336-1.218 0-.735-.315-1.218-.315-.504-.84-.756t-1.155-.252-1.176.252q-.525.252-.84.756-.315.483-.315 1.218 0 .714.315 1.218.336.504.861.777.525.252 1.155.252zM247.18 221.19q-1.344 0-2.331-.42-.966-.441-1.491-1.344-.525-.924-.525-2.373v-4.032h-1.638q-.231 0-.399-.147-.147-.147-.147-.378v-1.701q0-.231.147-.378.168-.147.399-.147h1.638v-3.465q0-.231.147-.378.168-.147.378-.147h2.436q.231 0 .378.147t.147.378v3.465h2.625q.231 0 .378.147.168.147.168.378v1.701q0 .231-.168.378-.147.147-.378.147h-2.625v3.738q0 .714.273 1.134t.924.42h1.617q.231 0 .378.147t.147.378v1.827q0 .21-.147.378-.147.147-.378.147zM251.92 221.19q-.231 0-.378-.147-.147-.168-.147-.378v-13.86q0-.231.147-.378t.378-.147h2.688q.231 0 .378.147t.147.378v4.683q.567-.651 1.386-1.029.84-.399 1.932-.399 1.218 0 2.163.546.966.546 1.512 1.596t.546 2.604v5.859q0 .21-.147.378-.147.147-.378.147h-2.709q-.21 0-.378-.147-.147-.168-.147-.378v-5.733q0-.987-.483-1.512-.462-.546-1.365-.546-.882 0-1.407.546-.525.525-.525 1.512v5.733q0 .21-.147.378-.147.147-.378.147zM270.05 221.19q-.231 0-.378-.147-.147-.168-.147-.378v-9.87q0-.231.147-.378t.378-.147h2.289q.231 0 .378.147t.147.378v.714q.42-.567 1.176-.987.756-.441 1.785-.462 2.436-.063 3.339 1.806.483-.798 1.365-1.302.903-.504 1.974-.504 1.092 0 1.953.504.882.483 1.407 1.512.525 1.008.525 2.625v5.964q0 .21-.147.378-.147.147-.378.147h-2.436q-.231 0-.399-.147-.147-.168-.147-.378v-5.817q0-.735-.21-1.155-.21-.441-.567-.63t-.819-.189q-.378 0-.756.189-.357.189-.588.63-.21.42-.21 1.155v5.817q0 .21-.147.378-.147.147-.378.147h-2.436q-.231 0-.378-.147-.147-.168-.147-.378v-5.817q0-.735-.231-1.155-.231-.441-.588-.63t-.777-.189q-.399 0-.777.189-.357.189-.588.63-.21.42-.21 1.134v5.838q0 .21-.168.378-.147.147-.357.147zM293.8 221.4q-2.478 0-3.948-1.344t-1.533-3.99v-.735q.063-1.659.735-2.835.693-1.197 1.89-1.806 1.218-.63 2.835-.63 1.848 0 3.045.735 1.218.735 1.827 1.995t.609 2.877v.504q0 .231-.147.378t-.378.147h-6.72V216.843q.021.609.21 1.113.21.504.588.798.399.294.966.294.42 0 .693-.126.294-.147.483-.315.189-.189.294-.315.189-.231.294-.273.126-.063.378-.063h2.604q.21 0 .336.126.147.126.126.336-.021.357-.357.861t-.987 1.008q-.63.483-1.596.798t-2.247.315zm-1.785-6.783h3.549v-.042q0-.693-.21-1.176-.189-.504-.609-.777-.399-.273-.966-.273-.546 0-.945.273t-.609.777q-.21.483-.21 1.176zM301.76 221.19q-.231 0-.378-.147-.147-.168-.147-.378v-9.87q0-.231.147-.378t.378-.147h2.289q.231 0 .378.147t.147.378v.714q.42-.567 1.176-.987.756-.441 1.785-.462 2.436-.063 3.339 1.806.483-.798 1.365-1.302.903-.504 1.974-.504 1.092 0 1.953.504.882.483 1.407 1.512.525 1.008.525 2.625v5.964q0 .21-.147.378-.147.147-.378.147h-2.436q-.231 0-.399-.147-.147-.168-.147-.378v-5.817q0-.735-.21-1.155-.21-.441-.567-.63t-.819-.189q-.378 0-.756.189-.357.189-.588.63-.21.42-.21 1.155v5.817q0 .21-.147.378-.147.147-.378.147h-2.436q-.231 0-.378-.147-.147-.168-.147-.378v-5.817q0-.735-.231-1.155-.231-.441-.588-.63t-.777-.189q-.399 0-.777.189-.357.189-.588.63-.21.42-.21 1.134v5.838q0 .21-.168.378-.147.147-.357.147zM327.15 221.4q-1.155 0-1.953-.399t-1.302-1.008v.672q0 .21-.168.378-.147.147-.357.147h-2.373q-.231 0-.378-.147-.147-.168-.147-.378v-13.86q0-.231.147-.378t.378-.147h2.562q.231 0 .378.147t.147.378v4.494q.525-.546 1.281-.882.756-.357 1.785-.357 1.05 0 1.848.357.819.336 1.386.987.567.63.882 1.554.315.903.357 2.016.021.42.021.756 0 .315-.021.735-.042 1.176-.357 2.1-.315.903-.903 1.554-.567.63-1.365.966-.798.315-1.848.315zm-1.134-2.814q.714 0 1.113-.294t.567-.798q.189-.504.231-1.113.042-.651 0-1.302-.042-.609-.231-1.113-.168-.504-.567-.798t-1.113-.294q-.651 0-1.071.294-.42.273-.63.735-.21.441-.231.966-.021.399-.021.777t.021.798q.042.567.231 1.05t.609.798q.42.294 1.092.294zM338.76 221.4q-2.478 0-3.948-1.344t-1.533-3.99v-.735q.063-1.659.735-2.835.693-1.197 1.89-1.806 1.218-.63 2.835-.63 1.848 0 3.045.735 1.218.735 1.827 1.995t.609 2.877v.504q0 .231-.147.378t-.378.147h-6.72V216.843q.021.609.21 1.113.21.504.588.798.399.294.966.294.42 0 .693-.126.294-.147.483-.315.189-.189.294-.315.189-.231.294-.273.126-.063.378-.063h2.604q.21 0 .336.126.147.126.126.336-.021.357-.357.861t-.987 1.008q-.63.483-1.596.798t-2.247.315zm-1.785-6.783h3.549v-.042q0-.693-.21-1.176-.189-.504-.609-.777-.399-.273-.966-.273-.546 0-.945.273t-.609.777q-.21.483-.21 1.176zM346.72 221.19q-.231 0-.378-.147-.147-.168-.147-.378v-9.87q0-.21.147-.357.147-.168.378-.168h2.415q.231 0 .378.168.168.147.168.357v.84q.546-.651 1.323-1.008.798-.357 1.785-.357h.924q.231 0 .378.147t.147.378v2.163q0 .21-.147.378-.147.147-.378.147h-2.037q-.861 0-1.344.483-.462.462-.462 1.323v5.376q0 .21-.168.378-.147.147-.378.147zM356.34 216.55q-.231 0-.378-.147-.147-.168-.147-.378v-9.009q0-.231.147-.378t.378-.147h2.415q.231 0 .378.147t.147.378v9.009q0 .21-.147.378-.147.147-.378.147zm-.084 4.641q-.231 0-.378-.147-.147-.168-.147-.378v-2.583q0-.231.147-.378.147-.168.378-.168h2.583q.21 0 .357.168.168.147.168.378v2.583q0 .21-.168.378-.147.147-.357.147z"/></g><circle cx="226" cy="79" r="59" fill="#fff" stroke="#fff" stroke-width="6"/><g stroke-width=".093"><path d="M199.785 121.054a10.527 10.527 0 0 1-1.42-.355c-2.605-.855-4.55-2.556-5.779-5.056-.964-1.963-1.4-3.602-1.548-5.829-.064-.953-.105-1.159-.229-1.13-.082.02-.583.151-1.113.292-.766.204-1.285.266-2.534.304-1.864.056-2.54-.067-3.851-.701-.72-.348-1.019-.576-1.825-1.39-1.245-1.258-2.018-2.598-2.49-4.318-.221-.811-.306-3.051-.154-4.092.305-2.085 1.426-4.295 3.348-6.601.395-.474.697-.914.673-.978-.025-.064-.439-.648-.92-1.298-1.561-2.11-2.207-3.228-2.699-4.668-.226-.664-.242-.854-.241-2.94 0-2.399.051-2.79.574-4.392.797-2.441 2.532-3.817 5.395-4.28 1.093-.176 3.688-.073 4.99.198 1.18.245 2.741.699 3.667 1.065.453.179.65.217.68.13.023-.066.181-.964.352-1.995.94-5.666 1.586-7.714 3.498-11.102 1.542-2.73 3.593-5.61 5.415-7.6 2.82-3.078 5.521-4.804 9.689-6.19 2.11-.7 3.927-1.058 5.389-1.058.29 0 .554-.04.584-.09.03-.049.239-.686.463-1.415 1.496-4.872 2.923-7.063 5.332-8.186.941-.439 1.42-.542 2.524-.541 1.669 0 2.865.582 4.467 2.174 1.114 1.108 2.123 2.524 2.748 3.858.207.443.658 1.626 1.002 2.63.625 1.822.626 1.824.968 1.898.19.04.845.168 1.459.283.613.116 1.644.386 2.29.602 2.057.685 3.356 1.436 6.376 3.682 5 3.719 6.856 5.803 9.006 10.107 1.394 2.791 2.19 5.015 2.7 7.538.395 1.95.46 2.74.518 6.349.031 1.867.074 3.45.095 3.518.026.083.377-.02 1.098-.322 1.365-.572 3.286-1.213 4.292-1.433 1.114-.243 3.317-.244 4.129 0 1.65.493 3.07 1.61 3.683 2.9.625 1.313.783 2.102.783 3.902 0 1.573-.01 1.65-.336 2.585-.184.53-.492 1.244-.684 1.588-.735 1.317-2.24 3.143-4.386 5.324l-1.066 1.084.651.69c.893.946 1.912 2.333 2.523 3.432 1.068 1.923 1.4 3.6 1.219 6.15-.156 2.178-.705 3.849-1.79 5.45-.588.867-1.692 1.968-2.366 2.36-.654.382-1.755.779-2.618.944-1.01.194-3.747.186-4.983-.014-1.765-.286-3.561-1.003-5.146-2.054-.293-.195-.547-.336-.565-.313-.017.022-.202.582-.412 1.245-.487 1.541-1.25 3.345-1.84 4.352-.88 1.505-2.144 2.46-3.866 2.923-1.06.284-3.669.311-4.741.049-2.767-.678-4.097-2.392-4.71-6.072-.156-.937-.407-3.453-.41-4.104 0-.292-.028-.532-.06-.532-.03 0-.658.18-1.393.4-2.74.817-5.335 1.204-8.685 1.293-4.584.123-8.044-.488-11.9-2.101-.508-.212-.954-.356-.991-.318-.038.037-.303.66-.59 1.385-2.017 5.089-4.346 8.004-7.755 9.707-2.067 1.033-4.272 1.399-6.484 1.077z" fill="#abe0e6"/><path d="M200.057 121.05c-.872-.125-2.458-.64-3.266-1.062-1.001-.522-2.208-1.53-2.97-2.481-1.51-1.886-2.576-4.905-2.762-7.82-.039-.6-.097-1.09-.13-1.09-.035 0-.61.146-1.278.323-1.109.294-1.356.323-2.788.328-1.751.007-2.187-.082-3.548-.727-.62-.294-.946-.548-1.774-1.383-1.093-1.105-1.585-1.846-2.091-3.153-1.323-3.412-.724-7.013 1.723-10.37.37-.508.94-1.243 1.265-1.634l.592-.711-1.061-1.447c-1.693-2.308-2.164-3.128-2.667-4.64-.273-.822-.287-.95-.29-2.788-.006-2.135.079-2.737.616-4.418.407-1.277 1.046-2.264 1.875-2.897.692-.528 1.155-.758 2.167-1.076 2.593-.814 5.5-.581 9.41.753.659.225 1.218.39 1.242.365.024-.024.206-.998.404-2.163 1.143-6.722 2.042-9.076 5.358-14.023 2.804-4.183 5.634-7.052 8.69-8.811 2.765-1.59 6.577-2.783 9.704-3.036l.85-.07.471-1.52c1.24-4.01 2.367-6.078 3.972-7.294 2.202-1.667 4.667-1.792 6.829-.346 1.466.98 3.307 3.239 4.164 5.11.204.444.632 1.587.952 2.54.32.953.61 1.78.645 1.837.036.057.337.134.67.172.836.094 2.811.588 3.91.977 1.756.62 2.965 1.34 5.828 3.47 4.998 3.718 6.958 5.905 9.056 10.107 1.36 2.725 2.216 5.155 2.746 7.805.4 1.991.464 2.765.53 6.36.036 1.855.1 3.371.146 3.371.045 0 .574-.2 1.176-.446 4.542-1.851 7.15-2.087 9.574-.863.693.35 1.679 1.24 2.097 1.895.604.945 1.13 2.962 1.13 4.333 0 1.339-.534 3.202-1.264 4.403-.736 1.212-2.763 3.607-4.505 5.323-.395.388-.717.77-.717.849s.285.445.633.814c1.524 1.616 2.781 3.632 3.312 5.31.934 2.959.355 6.943-1.384 9.507-.588.868-1.795 2.07-2.46 2.45-.656.375-1.776.753-2.807.947-1.108.208-3.824.15-4.998-.108-1.84-.404-3.374-1.044-4.791-1.999-.573-.386-.784-.419-.784-.123 0 .276-.733 2.418-1.221 3.571-.931 2.198-1.913 3.468-3.213 4.156-1.586.84-4.21 1.114-6.147.642-3.453-.841-4.637-2.95-5.142-9.165-.091-1.124-.165-1.586-.247-1.555-.064.025-.66.207-1.323.405-2.67.798-5.564 1.249-8.656 1.35-4.183.135-7.907-.534-11.785-2.115-.544-.222-1.037-.388-1.094-.369-.058.02-.373.709-.7 1.532-1.998 5.037-4.409 8.01-7.815 9.642-2.033.973-4.11 1.336-6.059 1.057zm3.227-3.343c3.329-.883 5.75-3.56 7.741-8.555.835-2.095.854-1.906-.263-2.652-2.64-1.765-4.992-4.08-6.62-6.518-2.032-3.046-3.74-8.308-4.205-12.952-.061-.61-.12-2.057-.13-3.217l-.02-2.11-2.027-1.153c-3.895-2.215-5.67-2.978-8.216-3.531-3.098-.674-5.644-.28-6.506 1.004-.625.93-.992 2.827-.915 4.719.078 1.908.39 2.542 2.91 5.938.787 1.06 1.482 2.097 1.545 2.306.18.598-.013 1.031-.924 2.083-2.39 2.755-3.228 4.139-3.603 5.954a6.69 6.69 0 0 0 .926 4.992c1.589 2.5 4.192 2.801 8.416.975 1.12-.484 1.487-.535 2.02-.282.81.384.958.875.83 2.736-.217 3.163.484 6.006 1.977 8.015 1.556 2.095 4.324 2.975 7.064 2.249zm43.773-.637c.726-.233 1.315-.84 1.849-1.9a18.726 18.726 0 0 0 1.819-5.693c.268-1.808.624-2.298 1.666-2.298.588 0 .587 0 2.17 1.195 2.223 1.679 3.473 2.274 5.478 2.61.772.128 1.378.16 2.326.121 2.078-.085 3.169-.554 4.043-1.74 1.035-1.405 1.432-2.606 1.517-4.589.071-1.668-.046-2.323-.637-3.549-.573-1.189-1.618-2.573-3.176-4.21-1.25-1.31-1.43-1.576-1.43-2.113 0-.594.259-.969 1.083-1.573.827-.607 1.57-1.327 3.056-2.967 2.562-2.826 3.206-4.008 3.206-5.89.001-1.396-.3-2.319-.963-2.962-.685-.663-1.302-.835-2.728-.76-1.964.104-4.416 1.01-7.91 2.92-.65.355-.825.408-1.203.366-.507-.056-.874-.296-1.214-.79-.219-.318-.233-.416-.178-1.208.142-2.05.178-5.867.074-7.815-.209-3.9-.945-6.748-2.658-10.283-2.021-4.17-3.803-6.133-9.012-9.928-1.849-1.347-2.934-2.008-3.983-2.423-.834-.331-2.685-.826-2.77-.741-.034.033.105.668.308 1.41.78 2.852.912 3.687.917 5.808.003 2.245-.1 2.782-.83 4.306-.402.839-.586 1.085-1.436 1.926-2.04 2.02-4.679 2.942-8.41 2.94-3.4 0-5.21-.558-8.073-2.484-2.24-1.508-2.819-2.104-3.201-3.292-.161-.501-.211-.914-.209-1.723.004-1.22.197-2.275.88-4.815.711-2.65 1.166-4.54 1.106-4.6-.088-.088-.833-.01-1.943.201-1.058.203-3.029.832-4.387 1.402-3.804 1.596-7.016 4.718-10.36 10.073-1.74 2.789-2.777 5.197-3.323 7.723-.402 1.861-1.214 6.886-1.128 6.973.111.11 2.765 1.592 2.853 1.592.037 0 .215-.627.397-1.394.87-3.676 2.825-8.48 4.447-10.92.825-1.242 1.93-2.463 3.38-3.734 1.866-1.637 2.226-1.798 3.09-1.38.697.338.85.692.95 2.2.166 2.496 1.581 7.755 2.771 10.296 1.947 4.154 5.516 7.73 8.782 8.8.844.277 1.144.322 2.418.366 2.85.097 5.682-.578 7.552-1.798 2.287-1.493 4.845-5.127 7.387-10.495.81-1.707 2.079-4.646 2.562-5.93.357-.947.493-1.16.909-1.417.43-.265 1.208-.272 1.63-.015.356.217 2.323 2.903 3.143 4.29.304.515.73 1.394.945 1.953.728 1.887 1.582 5.649 1.877 8.265.499 4.424.65 10.353.326 12.772-.348 2.596-.98 4.581-2.343 7.35-.885 1.798-1.999 3.588-3.09 4.966-1.442 1.82-3.777 3.876-5.825 5.127-.477.292-.867.587-.867.656 0 .685.355 4.326.518 5.316.424 2.574.877 3.294 2.293 3.645.617.153 2.933.063 3.559-.139z" fill="#72ade5"/><path d="M200.057 121.05c-.872-.125-2.458-.64-3.266-1.062-1.001-.522-2.208-1.53-2.97-2.481-1.51-1.886-2.576-4.905-2.762-7.82-.039-.6-.097-1.09-.13-1.09-.035 0-.61.146-1.278.323-1.109.294-1.356.323-2.788.328-1.751.007-2.187-.082-3.548-.727-.62-.294-.946-.548-1.774-1.383-1.093-1.105-1.585-1.846-2.091-3.153-1.323-3.412-.724-7.013 1.723-10.37.37-.508.94-1.243 1.265-1.634l.592-.711-1.061-1.447c-1.693-2.308-2.164-3.128-2.667-4.64-.273-.822-.287-.95-.29-2.788-.006-2.135.079-2.737.616-4.418.407-1.277 1.046-2.264 1.875-2.897.692-.528 1.155-.758 2.167-1.076 2.593-.814 5.5-.581 9.41.753.659.225 1.218.39 1.242.365.024-.024.206-.998.404-2.163 1.143-6.722 2.042-9.076 5.358-14.023 2.804-4.183 5.634-7.052 8.69-8.811 2.765-1.59 6.577-2.783 9.704-3.036l.85-.07.471-1.52c1.24-4.01 2.367-6.078 3.972-7.294 2.202-1.667 4.667-1.792 6.829-.346 1.466.98 3.307 3.239 4.164 5.11.204.444.632 1.587.952 2.54.32.953.61 1.78.645 1.837.036.057.337.134.67.172.836.094 2.811.588 3.91.977 1.756.62 2.965 1.34 5.828 3.47 4.998 3.718 6.958 5.905 9.056 10.107 1.36 2.725 2.216 5.155 2.746 7.805.4 1.991.464 2.765.53 6.36.036 1.855.1 3.371.146 3.371.045 0 .574-.2 1.176-.446 4.542-1.851 7.15-2.087 9.574-.863.693.35 1.679 1.24 2.097 1.895.604.945 1.13 2.962 1.13 4.333 0 1.339-.534 3.202-1.264 4.403-.736 1.212-2.763 3.607-4.505 5.323-.395.388-.717.77-.717.849s.285.445.633.814c1.524 1.616 2.781 3.632 3.312 5.31.934 2.959.355 6.943-1.384 9.507-.588.868-1.795 2.07-2.46 2.45-.656.375-1.776.753-2.807.947-1.108.208-3.824.15-4.998-.108-1.84-.404-3.374-1.044-4.791-1.999-.573-.386-.784-.419-.784-.123 0 .276-.733 2.418-1.221 3.571-.931 2.198-1.913 3.468-3.213 4.156-1.586.84-4.21 1.114-6.147.642-3.453-.841-4.637-2.95-5.142-9.165-.091-1.124-.165-1.586-.247-1.555-.064.025-.66.207-1.323.405-2.67.798-5.564 1.249-8.656 1.35-4.183.135-7.907-.534-11.785-2.115-.544-.222-1.037-.388-1.094-.369-.058.02-.373.709-.7 1.532-1.998 5.037-4.409 8.01-7.815 9.642-2.033.973-4.11 1.336-6.059 1.057zm2.177-3.128c2.99-.375 5.555-2.371 7.41-5.767.753-1.379 2.055-4.492 2.052-4.906 0-.066-.285-.304-.632-.527-.964-.62-2.553-1.881-3.646-2.895-3.148-2.92-5.148-6.443-6.468-11.396-.794-2.978-1.026-4.665-1.101-8.002l-.062-2.73-1.926-1.099c-5.06-2.887-7.841-3.867-10.998-3.875-2.89-.008-3.933.674-4.465 2.92-.275 1.164-.378 3.242-.203 4.129.242 1.232.851 2.269 3.092 5.26.647.865 1.225 1.733 1.285 1.93.184.612-.02 1.082-.907 2.09-2.37 2.69-3.242 4.139-3.623 6.019-.348 1.715.022 3.564 1.01 5.05.56.841 1.105 1.32 1.943 1.705 1.43.656 3.819.33 6.545-.892.958-.43 1.348-.477 1.874-.228.81.385.96.877.826 2.736-.177 2.456.179 4.593 1.076 6.472 1.247 2.61 3.055 3.856 5.944 4.096.085.008.523-.033.975-.09zm44.852-.852c.837-.306 1.25-.765 1.912-2.124.986-2.027 1.506-3.7 1.768-5.692.203-1.551.627-2.076 1.675-2.076.526 0 .63.057 1.88 1.014 2.476 1.9 3.567 2.431 5.732 2.794.757.126 1.37.158 2.311.12 2.078-.086 3.17-.556 4.043-1.742 1.057-1.433 1.438-2.608 1.515-4.669.065-1.736-.076-2.44-.737-3.693-.63-1.195-1.526-2.364-2.956-3.859-1.284-1.343-1.547-1.721-1.547-2.235 0-.59.289-.982 1.255-1.708.97-.73 2.985-2.836 4.377-4.576 1.676-2.096 2.105-3.829 1.462-5.91-.692-2.234-2.963-2.599-6.978-1.12-.996.367-3.004 1.319-4.373 2.071-.648.357-.825.411-1.202.371-.48-.051-.845-.275-1.174-.719-.193-.261-.205-.382-.158-1.666.09-2.457.034-8.04-.093-9.19-.354-3.22-1.483-6.666-3.22-9.832-1.815-3.304-3.663-5.221-8.254-8.561-1.887-1.372-3.01-2.06-4.058-2.481-.915-.368-2.685-.837-2.784-.738-.033.034.11.69.32 1.46.667 2.457.868 3.6.93 5.28.114 3.138-.515 4.957-2.343 6.763-1.072 1.06-2.019 1.64-3.491 2.14-1.544.523-2.34.656-4.291.719-3.653.117-5.61-.426-8.497-2.356-2.972-1.987-3.558-2.814-3.56-5.019-.001-1.2.186-2.292.773-4.505.969-3.656 1.277-4.946 1.197-5.023-.103-.1-1.729.14-2.87.422-1.125.28-2.833.905-4.127 1.513-3.277 1.538-6.062 4.234-9 8.714-3.031 4.62-3.644 6.285-4.77 12.97-.361 2.14-.426 2.703-.324 2.795.178.159 2.692 1.568 2.798 1.568.047 0 .236-.628.419-1.394 1.156-4.84 3.506-10.04 5.67-12.544.938-1.088 3.46-3.324 4.005-3.552.478-.2.725-.187 1.239.062.692.335.841.68.945 2.191.097 1.414.205 1.992.827 4.44.927 3.646 1.993 6.328 3.285 8.262 1.262 1.889 2.916 3.686 4.456 4.842.834.626 2.484 1.465 3.345 1.7.819.225 3.428.312 4.523.152 1.847-.27 3.684-.858 4.818-1.541 3.036-1.83 6.361-7.085 9.707-15.34.982-2.423.95-2.36 1.373-2.648.417-.283 1.167-.326 1.62-.092.49.254 2.818 3.536 3.616 5.1.555 1.088 1.123 2.828 1.598 4.887.755 3.28 1.058 5.922 1.281 11.171.22 5.171-.261 8.486-1.729 11.909-2.235 5.21-5.488 9.14-9.696 11.712-.543.332-.842.578-.842.693 0 .681.343 4.22.508 5.242.414 2.562.886 3.313 2.303 3.667.618.155 3.04.06 3.588-.14zm-17.195-9.083c3.523-.392 6.108-1.093 8.616-2.337 3.92-1.944 6.87-5.014 9.067-9.433 1.236-2.484 1.789-4.195 2.084-6.443.293-2.237.15-7.797-.309-11.94-.26-2.364-1.057-5.95-1.679-7.563-.281-.73-1.162-2.316-1.443-2.6-.101-.102-.275.211-.872 1.571-1.669 3.803-3.618 7.391-5.251 9.664-2.975 4.142-5.5 5.77-10.219 6.587-1.68.291-4.022.317-5.343.058-3.153-.616-6.166-2.578-8.813-5.738-2.811-3.356-4.17-6.297-5.6-12.116a100.36 100.36 0 0 0-.524-2.078c-.07-.208-.974.799-1.771 1.972-1.739 2.56-3.719 7.663-4.393 11.326-.467 2.537-.592 5.813-.312 8.203.402 3.444 1.714 7.823 3.031 10.121.822 1.434 1.643 2.493 2.952 3.806 4.054 4.067 9.431 6.542 15.305 7.044 1.17.1 4.143.043 5.474-.105zm-5.4-3.088c-1.343-.378-2.067-1.089-2.067-2.028 0-1.152 1.208-2.028 2.968-2.152 1.711-.121 3.199.63 3.547 1.792.251.84-.44 1.795-1.625 2.245-.739.281-2.09.35-2.823.143zm13.104-8.532c-1.245-.266-2.464-1.044-3.08-1.968-.53-.794-.67-1.27-.667-2.273.003-.696.05-.909.327-1.502.748-1.595 2.442-2.599 4.39-2.602 2.33-.004 4.328 1.565 4.666 3.664.324 2.01-1.166 4.008-3.425 4.597-.538.14-1.736.185-2.21.084zm-25.543-1.22c-1.676-.222-3.228-1.267-3.967-2.672-.263-.5-.29-.646-.29-1.565 0-.891.033-1.085.275-1.601.163-.348.515-.825.862-1.168 2.527-2.5 7.162-1.879 8.66 1.162.304.62.339.778.339 1.558 0 .801-.03.93-.383 1.644-.912 1.846-3.2 2.946-5.496 2.642z" fill="#8591b8"/><path d="M199.894 120.961c-4.958-.765-8.388-5.159-8.732-11.185-.037-.652-.095-1.2-.128-1.22-.033-.02-.585.106-1.226.277-1.095.293-1.276.312-2.99.313-1.712.001-1.87-.015-2.558-.263-.935-.336-1.44-.637-2.239-1.33a9.275 9.275 0 0 1-2.202-2.857c-.613-1.25-.865-2.27-.93-3.765-.14-3.157.79-5.538 3.358-8.602.42-.501.766-.972.767-1.046.001-.074-.52-.848-1.157-1.72-2.487-3.398-2.85-4.406-2.76-7.674.074-2.688.448-4.228 1.352-5.557.82-1.205 1.934-1.947 3.632-2.418.704-.195 1.065-.225 2.737-.227 1.443-.003 2.141.04 2.787.173 1.323.272 3.039.746 3.914 1.083.435.168.822.271.859.23.037-.042.215-.965.394-2.052.947-5.729 1.583-7.785 3.41-11.02.881-1.563 2.727-4.353 3.673-5.553 1.715-2.176 3.755-4.193 5.512-5.45 2.95-2.113 7.24-3.64 10.968-3.905l1.007-.072.521-1.672c1.222-3.92 2.238-5.802 3.84-7.108 1.264-1.032 2.616-1.477 4.196-1.381 1.575.095 2.72.731 4.297 2.39 1.674 1.76 2.642 3.502 3.586 6.454.267.836.515 1.555.551 1.598.036.043.495.147 1.02.232 1.183.192 2.691.57 3.665.92 1.596.573 2.884 1.35 5.655 3.411 5.031 3.743 7.055 6 9.157 10.209 1.356 2.716 2.115 4.868 2.644 7.5.402 2.001.465 2.768.532 6.466.034 1.91.096 3.495.137 3.52.041.026.55-.152 1.13-.395 3.66-1.533 6.244-1.967 8.438-1.415 1.003.252 1.766.705 2.601 1.544 1.174 1.179 1.682 2.5 1.789 4.658.115 2.327-.459 4.023-2.07 6.119-.701.91-2.59 3.013-3.622 4.03-.422.418-.768.817-.768.889 0 .072.314.468.698.882 1.559 1.682 2.821 3.673 3.296 5.2.347 1.116.473 2.556.361 4.132-.212 2.997-1.12 5.047-3.059 6.905-1.492 1.43-2.732 1.862-5.566 1.938-3.293.088-5.502-.482-7.893-2.04-.474-.308-.89-.528-.925-.489-.035.04-.185.505-.334 1.034-.355 1.267-1.24 3.448-1.795 4.427-.557.982-1.654 2.105-2.482 2.542-1.002.529-2.183.766-3.84.772-2.429.009-3.827-.45-5.028-1.65-1.007-1.006-1.46-2.072-1.87-4.393-.175-.994-.451-3.651-.451-4.347 0-.303-.045-.493-.116-.493-.064 0-.646.158-1.293.351-2.717.812-5.597 1.25-8.829 1.342-4.47.127-8.109-.522-12-2.14-.497-.206-.933-.338-.97-.293-.036.045-.326.743-.643 1.551-1.632 4.156-3.545 6.829-6.26 8.745-.964.68-2.43 1.354-3.593 1.651-1.14.291-3.103.407-4.155.244zm3.75-3.277c1.524-.493 3.263-1.675 4.327-2.942 1.149-1.368 2.234-3.325 3.162-5.703.78-1.998.763-1.801.201-2.187-3.154-2.17-5.572-4.507-7.162-6.92-2.106-3.198-3.799-8.593-4.23-13.482-.065-.724-.102-2.092-.083-3.039l.035-1.721-1.926-1.096c-4.082-2.323-6.008-3.143-8.658-3.685-2.224-.455-4.086-.35-5.396.302-.53.264-.698.414-.963.856-.604 1.012-1.033 3.334-.906 4.908.135 1.663.57 2.521 2.836 5.588.812 1.098 1.522 2.084 1.58 2.19.15.283.126.923-.05 1.26-.083.159-.43.604-.77.989-1.861 2.098-2.956 3.74-3.405 5.104-.353 1.074-.44 2.907-.185 3.904.278 1.081.809 2.066 1.523 2.823.749.794 1.418 1.163 2.423 1.338 1.218.212 3.274-.186 5.078-.983 1.223-.54 1.614-.647 1.985-.54.461.132.784.367 1.007.734.182.299.191.463.132 2.352-.07 2.25.06 3.433.537 4.894.937 2.87 2.533 4.524 5.017 5.196 1.064.289 2.753.228 3.891-.14zm42.624-.373c1.67-.264 2.324-.97 3.38-3.645.645-1.631.954-2.771 1.139-4.19.178-1.368.311-1.71.782-2 .796-.491 1.198-.397 2.466.579 2.815 2.166 4.197 2.797 6.747 3.08 1.687.187 3.26-.014 4.323-.553.725-.367 1.553-1.323 2.093-2.417.614-1.243.792-2.108.798-3.875.005-1.293-.02-1.49-.274-2.22-.528-1.518-1.467-2.863-3.547-5.078-1.33-1.416-1.553-1.797-1.389-2.37.151-.526.305-.71 1.097-1.313 1.424-1.085 4.464-4.407 5.317-5.812.625-1.03.814-1.636.864-2.77.032-.741-.001-1.19-.126-1.667-.314-1.206-.711-1.734-1.624-2.154-.441-.203-.658-.232-1.672-.224-.957.007-1.33.058-2.078.283-2.116.636-3.8 1.346-5.5 2.318-1.006.574-1.137.622-1.72.627-.594.005-.655-.016-.996-.357-.476-.476-.565-.904-.427-2.058.144-1.209.132-6.729-.018-8.472-.282-3.27-1.078-5.991-2.745-9.38-1.959-3.982-3.637-5.83-8.614-9.486-2.758-2.027-4.138-2.742-6.27-3.249-.465-.11-.867-.18-.892-.155-.026.025.138.724.363 1.552 1.053 3.873 1.246 6.13.713 8.346-.683 2.841-2.785 4.931-5.959 5.923-3.08.963-7.066.845-9.741-.288-1.423-.602-4.328-2.534-5.105-3.393-1.407-1.558-1.422-3.322-.07-8.322.71-2.623 1.012-3.872 1.012-4.171 0-.2-.036-.207-.684-.14-1.96.2-4.678 1.06-6.923 2.186-2.798 1.405-5.5 4.031-8.127 7.903-2.481 3.655-3.694 6.242-4.38 9.345-.292 1.316-1.172 6.43-1.172 6.807 0 .203.226.367 1.471 1.07.81.457 1.516.803 1.571.77.055-.035.1-.146.1-.25 0-.397.752-3.148 1.284-4.695.634-1.848 1.75-4.476 2.439-5.749 1.322-2.442 2.483-3.802 5.248-6.145.78-.66.955-.748 1.499-.748.918 0 1.49.7 1.492 1.823.001 1.491.815 5.147 1.844 8.288 1.845 5.633 6.055 10.347 10.268 11.497 1.172.32 3.801.32 5.299-.002 2.88-.617 4.287-1.342 5.962-3.071 2.256-2.33 4.721-6.557 7.115-12.2.496-1.17 1.031-2.47 1.188-2.888.436-1.161 1.059-1.64 1.923-1.477.528.099.774.357 2.062 2.165 1.857 2.605 2.462 3.804 3.11 6.157 1.173 4.254 1.722 9.06 1.722 15.05-.001 3.507-.099 4.503-.654 6.644-.865 3.34-2.946 7.333-5.258 10.09-1.484 1.77-3.588 3.582-5.48 4.72l-.814.49-.002.66c-.003.633.243 3.626.358 4.358.356 2.257.75 3.307 1.413 3.774.721.506 2.339.71 3.8.479zm-15.56-9.422c5.019-.646 8.73-2.195 11.884-4.96 2.94-2.579 5.599-6.92 6.613-10.803.532-2.033.56-2.36.556-6.386-.006-6.064-.452-9.938-1.62-14.065-.367-1.3-1.242-3.207-1.748-3.814l-.284-.34-.752 1.71c-3.61 8.213-7.033 12.93-10.732 14.787-2.18 1.095-4.898 1.696-7.667 1.697-2.464.001-4.334-.498-6.401-1.707-3.293-1.926-6.617-5.836-8.393-9.873-.59-1.34-1.298-3.584-1.935-6.132-.321-1.283-.618-2.37-.659-2.417-.093-.106-1.268 1.259-1.865 2.165-.518.786-1.52 2.76-2.046 4.024-1.434 3.456-2.164 6.157-2.53 9.354-.226 1.982-.154 5.386.151 7.173.555 3.244 1.564 6.463 2.709 8.64 1.793 3.41 5.355 6.642 9.613 8.724 2.93 1.432 5.642 2.161 9.177 2.468 1.052.09 4.398-.047 5.93-.244zm-6.213-2.99c-1.33-.374-2.047-1.093-2.047-2.05 0-2.101 4.127-2.942 5.93-1.209 1.467 1.412.11 3.253-2.484 3.37-.567.027-1.045-.012-1.399-.111zm12.954-8.575c-.842-.164-1.851-.747-2.512-1.454-1.24-1.324-1.455-3.084-.564-4.604.775-1.322 2.498-2.245 4.191-2.245 2.81 0 5.052 2.299 4.654 4.77-.394 2.45-3.03 4.064-5.769 3.533zm-25.706-1.25c-1.569-.296-2.988-1.308-3.612-2.575-.303-.617-.33-.752-.33-1.637 0-.861.031-1.031.296-1.574.384-.786 1.277-1.663 2.103-2.066 1.024-.499 1.8-.654 2.972-.593 1.63.086 2.728.592 3.779 1.742.696.762.975 1.486.978 2.54.003.702-.04.902-.32 1.497-.932 1.981-3.445 3.124-5.866 2.666zm17.766-31.083c1.986-.22 3.689-.917 4.694-1.917 1.536-1.53 1.78-3.833.82-7.762-.333-1.365-2.054-7.116-2.546-8.508-.863-2.444-2.533-4.757-3.955-5.478-.676-.342-1.506-.321-2.26.057-.572.288-1.337 1.085-1.776 1.853-.778 1.36-2.02 5.057-2.502 7.453-.437 2.168-.635 2.998-1.307 5.501-.726 2.703-1.017 4.235-.938 4.938.045.401.122.536.494.866.655.583 2.564 1.827 3.43 2.235 1.59.75 3.604 1.012 5.846.762z" fill="#6c8fa1"/><path d="M199.992 120.961c-1.616-.25-3.306-.987-4.63-2.022-2.363-1.848-3.983-5.418-4.203-9.26-.037-.65-.095-1.182-.128-1.182s-.608.145-1.277.323c-1.124.298-1.343.323-2.889.329-1.849.007-2.415-.113-3.7-.785-.75-.394-2.392-2.008-2.871-2.826-.937-1.596-1.433-3.347-1.435-5.061-.003-2.92 1.033-5.314 3.682-8.496l.592-.71-1.06-1.448c-1.71-2.331-2.276-3.317-2.724-4.744-.216-.687-.238-.943-.238-2.734 0-2.143.085-2.783.574-4.33.69-2.183 2.05-3.424 4.494-4.1.696-.193 1.07-.225 2.636-.228 1.345-.002 2.05.044 2.686.174 1.32.27 3.037.745 3.916 1.083.436.168.842.305.903.305.064 0 .248-.83.442-2.002.966-5.812 1.605-7.86 3.506-11.227 3.115-5.519 6.825-9.674 10.554-11.82 2.825-1.626 6.544-2.798 9.496-2.994.76-.05 1.013-.104 1.076-.228.046-.089.231-.663.411-1.276 1.094-3.726 2.446-6.243 3.98-7.405 1.298-.984 2.691-1.437 4.112-1.336 1.476.103 2.848.863 4.263 2.358 1.608 1.698 2.618 3.518 3.57 6.433.283.864.58 1.623.66 1.685.08.063.418.145.75.182.33.038 1.14.2 1.797.36 2.861.7 4.265 1.432 7.834 4.087 5 3.719 6.856 5.803 9.006 10.107 1.408 2.82 2.159 4.939 2.694 7.602.402 2.001.465 2.768.532 6.462.047 2.611.093 3.472.185 3.472.067 0 .597-.198 1.176-.44 4.425-1.851 7.168-2.112 9.558-.908 1.923.968 3.03 2.961 3.174 5.72.114 2.152-.473 3.903-1.998 5.96-.688.927-2.662 3.15-3.741 4.211-.395.389-.719.77-.719.85 0 .078.285.444.634.813 1.488 1.578 2.816 3.683 3.329 5.278.735 2.286.5 5.745-.545 8.026-.826 1.805-2.272 3.422-3.65 4.085-1.262.607-2.125.787-4.036.843-3.173.092-5.535-.533-7.924-2.094-.434-.284-.825-.516-.87-.516s-.18.364-.298.808c-.517 1.931-1.685 4.571-2.506 5.662-1.21 1.608-3.03 2.374-5.673 2.384-1.574.006-2.591-.192-3.698-.718-2.238-1.065-3.14-3.25-3.585-8.693-.1-1.226-.154-1.517-.273-1.502-.081.01-.604.161-1.162.336-4.322 1.355-10.107 1.774-14.545 1.054-1.944-.315-4.238-.98-6.21-1.8-.488-.203-.945-.368-1.014-.367-.069.002-.348.583-.62 1.293-1.342 3.504-3.153 6.4-4.997 7.99-1.524 1.314-3.345 2.3-5.05 2.732-1.141.29-2.94.401-3.953.245zm3.193-3.104c1.522-.37 3.137-1.355 4.432-2.705.933-.971 1.635-2.006 2.454-3.614.657-1.292 1.73-3.927 1.73-4.25 0-.135-.152-.303-.431-.477-1.775-1.108-4.657-3.665-5.984-5.308-2.282-2.827-3.865-6.506-4.833-11.236-.46-2.243-.612-3.831-.612-6.364v-2.245l-2.29-1.29c-3.871-2.18-5.733-2.974-8.204-3.494-2.6-.547-5.039-.294-6.094.632-.786.69-1.237 2.186-1.32 4.383-.1 2.618.1 3.06 3.372 7.469 1.068 1.439 1.23 1.803 1.062 2.388-.051.18-.56.874-1.13 1.541-2.014 2.357-2.893 3.762-3.302 5.276-.276 1.018-.252 2.779.05 3.75.61 1.968 1.857 3.361 3.408 3.807.473.136.834.16 1.672.116 1.303-.07 2.469-.376 4.103-1.077.659-.283 1.334-.514 1.5-.514.405 0 1.018.356 1.23.713.219.371.234.656.13 2.378-.215 3.55.806 6.758 2.72 8.548.78.731 1.332 1.07 2.285 1.4 1.327.462 2.63.517 4.052.172zm44.013-.734c1.016-.394 1.65-1.284 2.551-3.576.58-1.473.925-2.787 1.114-4.239.084-.642.218-1.231.314-1.377.26-.397.757-.65 1.28-.65.435 0 .566.073 1.93 1.09 2.97 2.214 4.208 2.708 7.086 2.83 3.082.132 4.592-.647 5.73-2.958.677-1.374.797-1.95.8-3.851.003-1.445-.023-1.704-.24-2.367-.246-.75-.996-2.047-1.754-3.032-.226-.294-.986-1.154-1.69-1.913-1.434-1.547-1.524-1.672-1.529-2.152-.006-.537.352-1.031 1.183-1.635 1.077-.784 3.734-3.61 4.92-5.232.563-.773 1.07-1.923 1.21-2.751.232-1.37-.207-3.189-.939-3.893-1.57-1.511-5.296-.842-10.162 1.825-1.003.55-1.314.674-1.687.674-.561 0-1.018-.297-1.268-.824-.163-.343-.166-.51-.047-2.187.155-2.18.07-7.287-.148-8.902-.476-3.523-1.723-7.001-3.706-10.342-1.615-2.719-3.544-4.624-7.804-7.708-1.748-1.264-2.995-2.037-3.889-2.41-.93-.386-2.805-.884-3.022-.8-.143.054-.114.231.234 1.463.681 2.406.903 3.66.967 5.46.046 1.3.023 1.796-.114 2.471-.566 2.794-1.99 4.58-4.657 5.844-1.876.889-3.748 1.214-6.5 1.128-3.247-.1-4.767-.638-7.822-2.767-1.444-1.006-2.176-1.732-2.532-2.513-.243-.532-.288-.778-.322-1.764-.051-1.454.103-2.331 1.002-5.697.87-3.255 1.05-4.052.941-4.159-.131-.129-1.674.089-2.949.416-2.367.609-5.06 1.808-6.696 2.983-2.437 1.75-4.97 4.687-7.298 8.466-2.043 3.314-2.807 5.243-3.512 8.867-.402 2.066-.963 5.623-.908 5.758.056.137 2.911 1.741 3.046 1.712.106-.024.147-.163.494-1.692.767-3.383 2.753-8.219 4.4-10.712.818-1.239 2.14-2.666 3.755-4.052 1.298-1.115 1.69-1.304 2.313-1.118.818.245 1.116.856 1.13 2.313.008.841.218 1.918.867 4.446.72 2.81 1.252 4.395 1.98 5.908 1.069 2.226 2.36 4.002 4.219 5.8 2.215 2.145 4.113 3.112 6.546 3.336 2.684.248 6.318-.596 8.228-1.91 2.897-1.993 6.213-7.4 9.43-15.378.953-2.361 1.081-2.52 2.03-2.52.787 0 .816.022 1.954 1.554 2.388 3.215 3.114 4.82 4.018 8.887.643 2.9.976 5.924 1.177 10.696.247 5.866-.326 9.073-2.383 13.326-1.37 2.836-2.732 4.77-4.858 6.901-1.443 1.446-2.71 2.467-4.134 3.33-.43.262-.81.52-.843.573-.174.28.37 5.383.72 6.767.539 2.12 1.248 2.578 3.897 2.514 1.118-.027 1.474-.074 1.947-.258zm-17.45-9.078c3.754-.399 6.14-1.035 8.762-2.338 4.234-2.103 7.391-5.525 9.582-10.383 1.475-3.272 1.91-5.783 1.787-10.344-.069-2.585-.286-5.726-.528-7.653-.347-2.762-1.203-6.215-1.91-7.709-.507-1.07-1.264-2.234-1.371-2.107-.04.047-.315.656-.612 1.353-.296.697-1.052 2.316-1.68 3.598-2.382 4.86-4.793 8.307-7.119 10.177-2.212 1.777-5.492 2.878-8.995 3.018-2.495.1-4.156-.23-6.183-1.226-1.614-.793-2.744-1.636-4.36-3.25-3.575-3.573-5.262-6.838-6.886-13.326-.313-1.251-.592-2.298-.62-2.325-.027-.027-.302.199-.612.502-2.245 2.2-4.994 8.76-5.754 13.729-.714 4.666-.323 8.86 1.279 13.73 1.44 4.38 3.482 7.162 7.347 10.015 3.447 2.545 7.955 4.245 12.242 4.617 1.12.098 4.406.052 5.63-.078zm-5.567-3.306c-1.15-.374-1.882-1.329-1.69-2.203.1-.46.706-1.091 1.35-1.407.542-.266.663-.285 1.847-.285 1.441 0 1.872.133 2.622.81 1.04.94.696 2.245-.781 2.957-.795.384-2.375.444-3.348.128zm13.77-8.414c-1.819-.2-3.401-1.41-3.895-2.978-.266-.847-.185-1.968.2-2.755.785-1.609 2.902-2.731 4.741-2.514 2.331.275 4.059 1.875 4.203 3.895.185 2.582-2.334 4.67-5.25 4.352zm-26.556-1.368c-1.335-.352-2.517-1.212-3.124-2.275-1.587-2.779.863-6.025 4.544-6.02 2.106.005 3.931 1.02 4.719 2.626.266.544.298.711.298 1.573 0 .882-.028 1.021-.328 1.63-.583 1.187-1.84 2.13-3.295 2.473-.796.188-2.085.184-2.814-.007zm19.395-31.104c2.37-.546 3.95-1.755 4.545-3.479.21-.608.236-.864.232-2.306-.005-2.226-.236-3.243-2.133-9.427-1.308-4.261-2.036-5.75-3.586-7.337-1.23-1.26-2.123-1.563-3.298-1.12-1.435.54-2.373 2.017-3.537 5.573-.616 1.88-.827 2.696-1.438 5.568-.147.695-.519 2.2-.825 3.345-.849 3.174-1.04 4.106-1.041 5.061l-.001.852.384.365c.396.378 2.137 1.586 2.987 2.074.694.398 1.697.756 2.592.925 1.02.192 4.125.136 5.12-.094z" fill="#547193"/><path d="M199.992 120.961c-1.616-.25-3.306-.987-4.63-2.022-2.363-1.848-3.983-5.418-4.203-9.26-.037-.65-.095-1.182-.128-1.182s-.608.145-1.277.323c-1.124.298-1.343.323-2.889.329-1.849.007-2.415-.113-3.7-.785-.75-.394-2.392-2.008-2.871-2.826-.937-1.596-1.433-3.347-1.435-5.061-.003-2.92 1.033-5.314 3.682-8.496l.592-.71-1.06-1.448c-1.684-2.295-2.283-3.34-2.725-4.746-.215-.684-.237-.942-.237-2.732 0-2.143.085-2.783.574-4.33.69-2.183 2.05-3.424 4.494-4.1.696-.193 1.07-.225 2.635-.228 1.346-.002 2.051.044 2.687.174 1.32.27 3.037.745 3.916 1.083.436.168.842.305.903.305.064 0 .248-.83.442-2.002.966-5.812 1.605-7.86 3.506-11.227 3.115-5.519 6.825-9.674 10.554-11.82 2.825-1.626 6.544-2.798 9.496-2.994.76-.05 1.013-.104 1.076-.228.046-.089.23-.663.41-1.276 1.095-3.726 2.447-6.243 3.98-7.405 1.3-.984 2.692-1.437 4.113-1.336 1.476.103 2.848.863 4.263 2.358 1.608 1.698 2.618 3.518 3.57 6.433.283.864.58 1.623.66 1.685.08.063.418.145.75.182.33.038 1.14.2 1.797.36 2.861.7 4.265 1.432 7.834 4.087 5 3.719 6.856 5.803 9.006 10.107 1.408 2.82 2.159 4.939 2.694 7.602.402 1.997.465 2.769.524 6.386.031 1.868.073 3.45.093 3.515.024.077.434-.05 1.184-.366 4.474-1.89 7.242-2.162 9.65-.95 1.923.97 3.03 2.962 3.174 5.72.114 2.153-.473 3.904-1.998 5.96-.688.928-2.662 3.15-3.741 4.212-.395.389-.719.77-.719.85 0 .078.285.444.634.813 1.488 1.578 2.816 3.683 3.329 5.278.735 2.286.5 5.745-.545 8.026-.826 1.805-2.272 3.422-3.65 4.085-1.262.607-2.125.787-4.036.843-3.173.092-5.535-.533-7.924-2.094-.434-.284-.825-.516-.87-.516s-.18.364-.298.808c-.517 1.931-1.685 4.571-2.506 5.661-1.21 1.61-3.03 2.375-5.673 2.385-1.574.006-2.591-.192-3.698-.718-2.238-1.065-3.14-3.25-3.585-8.693-.1-1.226-.154-1.517-.273-1.502-.081.01-.604.161-1.162.336-4.322 1.355-10.107 1.774-14.545 1.054-1.944-.315-4.238-.98-6.21-1.8-.488-.203-.945-.368-1.014-.367-.069.002-.347.583-.62 1.293-1.342 3.504-3.153 6.4-4.997 7.99-1.524 1.314-3.345 2.3-5.05 2.732-1.141.29-2.94.401-3.953.245zm2.702-2.978c3.299-.633 5.965-3.124 7.84-7.322.617-1.385 1.375-3.39 1.316-3.485-.026-.041-.573-.447-1.217-.902-3.556-2.513-6.142-5.428-7.695-8.674-1.16-2.422-2.2-5.958-2.713-9.224-.157-1.003-.217-1.96-.248-4.001-.022-1.476-.074-2.717-.114-2.756-.174-.171-4.54-2.586-5.673-3.137-2.366-1.151-4.745-1.793-6.97-1.882-2.437-.097-3.875.445-4.516 1.701-.495.97-.848 3.472-.699 4.951.153 1.513.592 2.348 2.83 5.38.772 1.046 1.453 1.995 1.514 2.108.061.114.11.409.11.655 0 .524-.038.584-1.526 2.34-2.329 2.749-3.133 4.458-3.135 6.662-.001 2.312 1.271 4.626 3.02 5.486.593.293.782.333 1.702.367 1.563.058 2.88-.25 5-1.168.82-.355 1.136-.445 1.405-.402.454.074.795.304 1.044.705.19.304.198.44.137 2.25-.108 3.171.336 5.206 1.595 7.321 1.367 2.296 4.266 3.55 6.993 3.027zm43.598-.612c1.55-.277 1.986-.647 2.866-2.438.789-1.604 1.441-3.641 1.633-5.094.181-1.378.387-2.005.747-2.272.294-.22.89-.34 1.242-.25.133.032.945.587 1.804 1.23 2.686 2.013 4.118 2.566 6.885 2.657 2.528.084 3.484-.191 4.621-1.33 1.183-1.183 1.766-2.582 1.968-4.725.283-3.004-.589-4.802-4.143-8.538-.84-.884-1.015-1.124-1.074-1.477-.105-.618.16-1.08.96-1.67.845-.624 2.058-1.818 3.47-3.415 2.386-2.7 3.006-3.961 2.888-5.867-.145-2.323-1.038-3.395-3.013-3.62-1.59-.18-5.067.954-8.144 2.656-1.373.759-1.864.858-2.37.48-.513-.382-.688-.718-.67-1.284.242-7.764.122-10.282-.628-13.246-.492-1.944-1.086-3.502-2.123-5.575-1.967-3.93-3.475-5.638-7.896-8.944-3.46-2.588-4.704-3.26-7.096-3.83-.45-.108-.854-.16-.9-.114-.045.045.081.648.28 1.34.198.693.505 1.944.682 2.78.294 1.388.322 1.68.32 3.345-.001 1.699-.02 1.887-.28 2.733-.983 3.21-3.278 5.11-7.186 5.95-.865.187-1.375.225-3.065.23-3.578.012-5.064-.445-8.133-2.499-2.577-1.724-3.16-2.53-3.246-4.488-.059-1.34.11-2.285 1.033-5.778.949-3.586 1.034-3.98.896-4.118-.16-.16-2.135.156-3.558.567-3.504 1.014-6.09 2.504-8.47 4.884-2.405 2.401-4.975 6.068-6.597 9.412-.768 1.583-1.081 2.481-1.519 4.358-.464 1.993-1.33 7.23-1.213 7.345.264.258 3.028 1.723 3.105 1.645.05-.049.206-.609.348-1.245.346-1.547 1.045-3.78 1.724-5.515.794-2.026 2.25-4.906 3.05-6.03 1.163-1.633 4.234-4.528 5.04-4.75.472-.131 1.02.023 1.385.387.332.333.343.379.48 2.082.185 2.289 1.661 7.688 2.741 10.025 1.685 3.648 4.948 7.186 7.874 8.538 1.237.571 2.309.785 3.945.787 2.704.004 5.449-.72 7.232-1.905 1.429-.95 3.289-3.174 4.928-5.89 1.366-2.264 3.41-6.546 4.766-9.984.32-.808.655-1.554.747-1.658.416-.468 1.182-.606 1.747-.314.49.253 2.852 3.554 3.592 5.02.44.872.996 2.48 1.362 3.94 1.06 4.234 1.46 8.039 1.469 13.943.005 4.022-.068 4.8-.656 7.039-.547 2.076-1.877 5.053-3.198 7.152-1.91 3.035-4.658 5.77-7.534 7.5l-.843.508.065 1.165c.228 4.072.78 6.799 1.514 7.488.73.686 2.486.973 4.146.677zm-17.3-9.182c6.79-.546 11.369-2.563 15.201-6.697 1.453-1.568 2.569-3.26 3.702-5.615 1.641-3.411 2.049-5.358 2.046-9.782-.002-4.32-.352-8.356-.997-11.535-.498-2.45-.979-4.058-1.568-5.24-.568-1.14-1.19-2.043-1.315-1.912-.046.048-.412.84-.813 1.76-2.03 4.655-4.159 8.396-6.27 11.02-2.307 2.869-4.57 4.231-8.405 5.06-1.756.38-4.61.449-6.077.146-2.806-.58-4.865-1.78-7.38-4.305-2.936-2.947-4.708-5.957-5.975-10.147-.414-1.368-1.368-5.106-1.368-5.36 0-.32-.287-.157-.936.531-.876.929-1.573 2.002-2.411 3.714-2.177 4.446-3.281 8.472-3.54 12.91-.352 6.052 1.698 13.234 4.863 17.037 2.883 3.463 7.268 6.262 11.91 7.6 1.344.388 2.934.664 4.913.854.83.08 3.21.058 4.42-.039zm-4.19-3.34c-1.352-.288-2.257-1.08-2.257-1.978 0-1.982 3.966-2.802 5.71-1.18 1.067.992.609 2.344-.997 2.945-.656.246-1.823.347-2.455.212zm12.948-8.586c-1.479-.247-2.788-1.172-3.422-2.416-1.177-2.31.444-5.073 3.3-5.629 2.284-.444 4.77.914 5.355 2.924.241.829.154 1.962-.208 2.702-.822 1.68-3.044 2.75-5.025 2.42zM212.027 95c-3.15-.451-5.002-3.232-3.79-5.692 1.279-2.598 5.197-3.419 7.792-1.632.684.471 1.158 1.041 1.515 1.82.221.484.274.746.273 1.361-.002 1.121-.295 1.802-1.14 2.647-1.199 1.197-2.904 1.747-4.65 1.496zm17.92-30.946c4.495-.678 6.3-3.112 5.625-7.589-.235-1.562-.502-2.597-1.689-6.551-1.25-4.167-1.705-5.41-2.403-6.572-.613-1.02-.774-1.226-1.646-2.113-1.335-1.356-2.264-1.61-3.563-.97-.446.22-.834.512-1.143.86-1.173 1.325-2.583 5.173-3.445 9.397-.2.976-.678 2.96-1.063 4.41-.887 3.338-1.046 4.14-.995 5.041.039.688.056.73.442 1.065.557.485 2.683 1.899 3.376 2.245 1.672.836 4.147 1.132 6.503.777z" fill="#546063"/><path d="M200.057 120.847c-.94-.135-2.709-.733-3.41-1.154-1.573-.946-2.484-1.845-3.438-3.393-1.112-1.803-1.978-5.005-1.982-7.322 0-.706.068-.694-1.571-.26-1.107.293-1.358.323-2.788.33-1.473.005-1.628-.012-2.476-.29-3.678-1.205-6.04-5.678-5.281-10.004.169-.965.607-2.325.997-3.093.398-.784 1.588-2.514 2.396-3.483.395-.474.698-.914.673-.978-.025-.064-.44-.65-.921-1.301-1.683-2.274-2.267-3.277-2.747-4.716-.276-.827-.288-.94-.29-2.838-.002-2.154.102-2.876.653-4.505.277-.82.879-1.846 1.348-2.298.801-.772 2.412-1.454 4.055-1.716 1.97-.314 5.267.183 8.076 1.219.456.168.909.306 1.006.306.152 0 .226-.291.51-2.002 1.165-7.018 2.023-9.288 5.423-14.36 1.415-2.11 2.149-3.068 3.384-4.418 2.76-3.015 5.371-4.735 9.169-6.035 2.24-.768 3.794-1.11 5.58-1.228.76-.05 1.012-.103 1.076-.227.046-.09.23-.664.41-1.277.457-1.565 1.266-3.705 1.761-4.663.874-1.688 1.96-2.816 3.372-3.498 3.024-1.462 5.97-.214 8.517 3.609.877 1.318 1.336 2.332 2.059 4.552.29.892.593 1.673.674 1.735.08.063.417.145.749.182 1.465.166 4.173.975 5.502 1.644 1.705.858 6.52 4.419 8.479 6.27 1.77 1.674 3.368 3.938 4.722 6.691 1.33 2.705 2.105 4.931 2.63 7.552.401 2.004.464 2.77.53 6.465.035 1.91.097 3.495.138 3.52.041.026.547-.151 1.125-.393 3.161-1.324 5.693-1.907 7.362-1.693 2.58.33 4.225 1.565 4.946 3.714 1.09 3.244.57 5.864-1.766 8.913-.598.78-2.636 3.05-3.501 3.9-.367.36-.668.72-.668.797 0 .079.268.43.596.78 1.486 1.588 2.798 3.666 3.308 5.24.974 3.001.452 6.881-1.275 9.474-1.307 1.963-2.713 2.877-5.125 3.331-1.115.21-3.827.152-5.005-.106-1.85-.406-3.186-.964-4.662-1.946-.361-.24-.729-.437-.816-.437-.113 0-.234.27-.424.948-.614 2.184-1.644 4.513-2.484 5.616-.795 1.045-1.723 1.62-3.26 2.02-.792.207-1.22.255-2.292.258-3.146.01-5.095-1.034-6.036-3.23-.497-1.159-.918-3.407-1.117-5.967-.07-.892-.158-1.659-.198-1.704-.039-.045-.681.102-1.428.326-2.796.843-5.643 1.294-8.807 1.397-4.182.135-7.907-.533-11.783-2.114-.543-.222-1.063-.389-1.156-.37-.111.021-.376.559-.794 1.615-1.091 2.754-2.255 4.813-3.66 6.476-2.52 2.981-6.556 4.641-10.064 4.14zm3.282-2.878c.894-.237 2.144-.869 3.053-1.544 1.748-1.3 3.114-3.186 4.377-6.044.46-1.04 1.237-3.06 1.237-3.214 0-.046-.405-.357-.9-.69-2.849-1.915-5.338-4.38-6.955-6.887-1.547-2.398-3.049-6.67-3.693-10.505-.319-1.898-.427-3.384-.4-5.497.014-1.072.003-1.97-.022-1.995-.025-.026-1.071-.626-2.324-1.334-3.823-2.16-5.437-2.859-7.967-3.45-1.044-.244-1.422-.283-2.826-.287-1.411-.005-1.717.024-2.35.223-1.332.419-1.97 1.154-2.358 2.716-.482 1.94-.458 4.084.062 5.381.308.77 1.25 2.21 2.792 4.264 1.298 1.728 1.296 1.725 1.296 2.289 0 .51-.075.622-1.527 2.303a25.794 25.794 0 0 0-1.62 2.114c-1.173 1.762-1.588 3.161-1.489 5.025.066 1.241.434 2.342 1.139 3.402.576.866 1.118 1.35 1.977 1.76.589.282.777.319 1.777.352 1.597.054 3.215-.354 5.318-1.341.307-.144.665-.262.796-.263.382-.001.935.313 1.145.65.18.29.189.45.127 2.187-.114 3.173.347 5.295 1.598 7.364.99 1.635 2.73 2.842 4.577 3.175.707.128 2.412.045 3.16-.154zm43.662-.653c1.05-.324 1.488-.785 2.254-2.373.975-2.023 1.59-4.003 1.729-5.57.085-.962.197-1.294.549-1.631.325-.312 1.051-.459 1.385-.28.107.057.793.553 1.526 1.101.733.549 1.584 1.15 1.892 1.336 1.624.978 3.446 1.453 5.592 1.455 2.118.003 3.277-.374 4.253-1.384.878-.908 1.543-2.218 1.846-3.635.222-1.035.222-3.085 0-3.913-.405-1.512-1.612-3.315-3.642-5.44-1.53-1.601-1.677-1.92-1.267-2.754.062-.127.506-.521.985-.877 1.117-.828 3.79-3.689 4.897-5.241 1.207-1.691 1.551-3.294 1.094-5.084-.244-.952-.411-1.282-.881-1.738-1.371-1.332-4.35-1.011-8.419.907-.623.294-1.553.771-2.065 1.06-1.055.595-1.63.685-2.112.333-.474-.348-.638-.801-.567-1.574.264-2.888.214-7.99-.1-10.262-.417-3.01-1.522-6.231-3.165-9.224-1.9-3.463-3.532-5.146-8.494-8.765-2.51-1.83-3.753-2.464-5.864-2.992-.75-.188-1.133-.242-1.204-.171-.07.07.044.645.361 1.81.774 2.838.924 3.778.918 5.76-.003 1.437-.04 1.857-.223 2.534-1.138 4.214-5.208 6.541-11.018 6.3-3.228-.134-5.201-.903-8.314-3.241-1.822-1.368-2.254-2.25-2.144-4.377.068-1.318.223-2.056 1.18-5.626.397-1.477.73-2.914.743-3.193l.02-.507-.709.031c-2.019.088-5.78 1.348-7.989 2.675-1.3.78-2.247 1.545-3.617 2.919-1.843 1.847-3.59 4.178-5.302 7.068-2.107 3.56-2.629 5.205-3.68 11.603-.3 1.82-.353 2.33-.256 2.447.197.238 3.068 1.808 3.208 1.755.07-.027.204-.406.297-.843.5-2.329 1.304-4.795 2.403-7.365 1.698-3.971 2.919-5.686 5.865-8.236.585-.507 1.163-.975 1.285-1.04.32-.169 1.02-.144 1.346.05.456.269.58.604.647 1.76.079 1.337.166 1.814.776 4.256.84 3.356 1.522 5.345 2.422 7.054a21.225 21.225 0 0 0 3.93 5.215c2.925 2.809 5.678 3.785 9.32 3.303 4.992-.66 7.281-2.378 10.622-7.97 1.438-2.407 3.642-7.075 4.881-10.338.375-.987.494-1.166.902-1.36.425-.201.892-.205 1.268-.01.177.091.764.816 1.5 1.85 1.888 2.653 2.324 3.484 3 5.716.406 1.336 1 4.016 1.222 5.512.666 4.482.861 12.047.38 14.798-.408 2.342-1.056 4.233-2.303 6.724-2.253 4.503-5.012 7.494-9.396 10.19-.247.151-.278.231-.278.7.001.915.301 3.993.51 5.227.447 2.644 1.05 3.44 2.853 3.762.783.14 2.38.04 3.148-.197zm-18.062-9.028c6.527-.513 11.04-2.388 14.749-6.128 1.675-1.689 2.913-3.457 4.141-5.914 1.921-3.842 2.437-6.734 2.19-12.28-.208-4.706-.46-7.035-1.073-9.899-.43-2.015-.867-3.505-1.304-4.45-.425-.92-1.356-2.375-1.52-2.375-.07 0-.46.764-.87 1.698-3.048 6.969-6.136 11.7-9.054 13.873-1.443 1.074-3.29 1.845-5.584 2.332-1.807.382-4.647.451-6.115.148-2.748-.568-4.829-1.773-7.275-4.215-2.603-2.598-4.36-5.398-5.568-8.869-.389-1.115-1.334-4.543-1.636-5.93-.267-1.225-.32-1.244-1.112-.402-1.669 1.776-3.377 5.119-4.686 9.17-1.493 4.617-1.85 9.17-1.075 13.735.527 3.11 1.788 6.836 3.01 8.893 1.934 3.259 5.603 6.435 9.623 8.333 2.828 1.335 5.296 1.986 8.795 2.322.832.08 3.101.058 4.364-.041zm-3.958-3.504c-.991-.19-1.898-.71-2.176-1.247-.333-.645-.133-1.404.497-1.885 1.316-1.003 3.757-.958 4.907.09.73.665.694 1.673-.08 2.325-.629.529-2.23.893-3.148.717zm12.62-8.658c-1.867-.382-3.165-1.609-3.498-3.304-.391-1.986 1.157-4.013 3.426-4.486 2.089-.436 4.304.557 5.167 2.316.245.498.277.677.277 1.576 0 .92-.028 1.068-.297 1.598-.862 1.703-3.082 2.709-5.076 2.3zm-25.54-1.223c-1.165-.17-2.054-.577-2.819-1.29-1.319-1.23-1.644-2.798-.895-4.319 1.167-2.371 4.812-3.227 7.367-1.73 1.516.889 2.321 2.634 1.917 4.156-.568 2.139-3.04 3.551-5.57 3.183zm19.039-30.94c1.3-.342 2.329-.858 3.097-1.553 1.111-1.006 1.521-1.988 1.601-3.835.086-1.98-.215-3.452-1.756-8.587-1.172-3.902-1.494-4.835-2.062-5.972-1.084-2.166-2.897-4.016-4.115-4.199-1.047-.157-2.35.518-3.142 1.628-1.116 1.564-2.33 5.018-3.133 8.92a67.477 67.477 0 0 1-.663 2.889c-1.211 4.587-1.338 5.144-1.393 6.102-.076 1.34-.022 1.444 1.236 2.361 2.088 1.522 3.592 2.243 5.173 2.481.335.05 1.407.077 2.383.06 1.517-.028 1.918-.07 2.774-.295z" fill="#020202"/></g></g></svg>